<svg width="642" height="311" viewBox="0 0 642 311" fill="none" xmlns="http://www.w3.org/2000/svg">
<rect width="642" height="304" rx="18" fill="#F7F7F7"/>
<path d="M424.4 274.6C416.8 274.6 410 272.8 404 269.2C398.133 265.6 393.533 260.6 390.2 254.2C387 247.667 385.4 240.133 385.4 231.6V174.4C385.4 165.867 387 158.4 390.2 152C393.533 145.467 398.133 140.4 404 136.8C410 133.2 416.8 131.4 424.4 131.4H445.6C453.333 131.4 460.133 133.2 466 136.8C471.867 140.4 476.4 145.467 479.6 152C482.8 158.4 484.4 165.867 484.4 174.4V231.6C484.4 240.133 482.8 247.667 479.6 254.2C476.4 260.6 471.867 265.6 466 269.2C460.133 272.8 453.333 274.6 445.6 274.6H424.4ZM445.2 264.6C453.733 264.6 460.533 261.6 465.6 255.6C470.8 249.467 473.4 241.467 473.4 231.6V174.4C473.4 164.4 470.8 156.4 465.6 150.4C460.533 144.267 453.733 141.2 445.2 141.2H424.8C416.267 141.2 409.4 144.267 404.2 150.4C399 156.4 396.4 164.4 396.4 174.4V231.6C396.4 241.467 399 249.467 404.2 255.6C409.4 261.6 416.267 264.6 424.8 264.6H445.2ZM583.734 201C590.001 203.4 594.934 207.267 598.534 212.6C602.268 217.933 604.134 224 604.134 230.8V238.8C604.134 249.467 600.601 258.133 593.534 264.8C586.601 271.333 577.468 274.6 566.134 274.6H546.734C535.401 274.6 526.268 271.067 519.334 264C512.534 256.8 509.134 247.333 509.134 235.6H519.934C519.934 244.267 522.401 251.267 527.334 256.6C532.268 261.933 538.734 264.6 546.734 264.6H566.134C574.268 264.6 580.801 262.267 585.734 257.6C590.668 252.8 593.134 246.533 593.134 238.8V230.8C593.134 222.933 590.668 216.867 585.734 212.6C580.801 208.2 574.068 206 565.534 206H545.734V196.4H565.534C573.268 196.4 579.334 194.267 583.734 190C588.268 185.733 590.534 179.867 590.534 172.4V164.4C590.534 157.467 588.334 151.867 583.934 147.6C579.534 143.333 573.734 141.2 566.534 141.2H547.134C539.268 141.2 532.934 143.867 528.134 149.2C523.468 154.533 521.134 161.533 521.134 170.2H510.134C510.134 158.467 513.534 149.067 520.334 142C527.134 134.933 536.068 131.4 547.134 131.4H566.534C577.068 131.4 585.534 134.4 591.934 140.4C598.334 146.4 601.534 154.4 601.534 164.4V172.4C601.534 179.067 599.934 184.867 596.734 189.8C593.668 194.733 589.334 198.467 583.734 201Z" fill="url(#paint0_linear_1192_38)"/>
<path d="M50.976 86.416C48.8613 86.416 46.9893 85.948 45.36 85.012C43.7307 84.0413 42.4653 82.6893 41.564 80.956C40.6973 79.188 40.264 77.1773 40.264 74.924V49.6H43.124V74.976C43.124 77.6107 43.8347 79.7427 45.256 81.372C46.712 83.0013 48.6187 83.816 50.976 83.816H56.644C59.0013 83.816 60.8907 83.0187 62.312 81.424C63.768 79.7947 64.496 77.6453 64.496 74.976V49.6H67.356V74.924C67.356 77.1773 66.9053 79.188 66.004 80.956C65.1373 82.6893 63.8893 84.0413 62.26 85.012C60.6307 85.948 58.7587 86.416 56.644 86.416H50.976ZM75.8617 60.052H78.5657V64.264C79.3283 62.9467 80.4203 61.9067 81.8417 61.144C83.263 60.3467 84.7883 59.948 86.4177 59.948H88.3417V62.444H86.3657C84.1123 62.444 82.2577 63.172 80.8017 64.628C79.3803 66.084 78.6697 67.9733 78.6697 70.296V86H75.8617V60.052ZM101.343 86.416C98.5699 86.416 96.3339 85.5493 94.6353 83.816C92.9366 82.048 92.0873 79.7427 92.0873 76.9V69.152C92.0873 66.3093 92.9366 64.0213 94.6353 62.288C96.3686 60.52 98.6393 59.636 101.447 59.636H105.555C108.363 59.636 110.617 60.52 112.315 62.288C114.049 64.0213 114.915 66.3093 114.915 69.152V76.9C114.915 79.7427 114.049 82.048 112.315 83.816C110.582 85.5493 108.294 86.416 105.451 86.416H101.343ZM105.451 83.92C107.462 83.92 109.074 83.2787 110.287 81.996C111.535 80.7133 112.159 79.0147 112.159 76.9V69.152C112.159 67.0373 111.553 65.3387 110.339 64.056C109.126 62.7733 107.531 62.132 105.555 62.132H101.447C99.4713 62.132 97.8766 62.7733 96.6633 64.056C95.4846 65.3387 94.8953 67.0373 94.8953 69.152V76.9C94.8953 79.0147 95.4846 80.7133 96.6633 81.996C97.8419 83.2787 99.4019 83.92 101.343 83.92H105.451ZM128.72 86C126.467 86 124.855 85.48 123.884 84.44C122.913 83.4 122.428 81.6667 122.428 79.24V49.6H125.236V79.24C125.236 80.7653 125.496 81.8573 126.016 82.516C126.571 83.1747 127.472 83.504 128.72 83.504H130.384V86H128.72ZM144.203 86.416C141.429 86.416 139.193 85.5493 137.495 83.816C135.796 82.048 134.947 79.7427 134.947 76.9V69.152C134.947 66.3093 135.796 64.0213 137.495 62.288C139.228 60.52 141.499 59.636 144.307 59.636H148.415C151.223 59.636 153.476 60.52 155.175 62.288C156.908 64.0213 157.775 66.3093 157.775 69.152V76.9C157.775 79.7427 156.908 82.048 155.175 83.816C153.441 85.5493 151.153 86.416 148.311 86.416H144.203ZM148.311 83.92C150.321 83.92 151.933 83.2787 153.147 81.996C154.395 80.7133 155.019 79.0147 155.019 76.9V69.152C155.019 67.0373 154.412 65.3387 153.199 64.056C151.985 62.7733 150.391 62.132 148.415 62.132H144.307C142.331 62.132 140.736 62.7733 139.523 64.056C138.344 65.3387 137.755 67.0373 137.755 69.152V76.9C137.755 79.0147 138.344 80.7133 139.523 81.996C140.701 83.2787 142.261 83.92 144.203 83.92H148.311ZM173.243 96.556C171.094 96.556 169.326 95.984 167.939 94.84C166.553 93.7307 165.773 92.2573 165.599 90.42H168.407C168.546 91.5293 169.049 92.4133 169.915 93.072C170.817 93.7653 171.926 94.112 173.243 94.112H177.559C179.501 94.112 181.009 93.4707 182.083 92.188C183.158 90.94 183.695 89.1893 183.695 86.936V81.84C182.863 83.088 181.806 84.0933 180.523 84.856C179.275 85.6187 178.01 86 176.727 86H172.879C170.314 86 168.234 85.116 166.639 83.348C165.045 81.58 164.247 79.24 164.247 76.328V69.62C164.247 66.6387 165.079 64.2293 166.743 62.392C168.442 60.5547 170.678 59.636 173.451 59.636H177.299C178.547 59.636 179.761 59.9827 180.939 60.676C182.153 61.3347 183.089 62.2187 183.747 63.328V60.052H186.451V86.936C186.451 89.952 185.671 92.3093 184.111 94.008C182.551 95.7067 180.367 96.556 177.559 96.556H173.243ZM176.675 83.504C178.409 83.504 179.917 82.828 181.199 81.476C182.517 80.0893 183.349 78.4773 183.695 76.64V68.008C183.383 66.2747 182.621 64.8707 181.407 63.796C180.229 62.6867 178.859 62.132 177.299 62.132H173.503C171.562 62.132 170.002 62.8253 168.823 64.212C167.645 65.5987 167.055 67.4013 167.055 69.62V76.328C167.055 78.4427 167.593 80.176 168.667 81.528C169.777 82.8453 171.198 83.504 172.931 83.504H176.675ZM195.254 60.052H198.062V86H195.254V60.052ZM199.414 47.312H202.638L197.75 54.8H195.046L199.414 47.312ZM213.951 86.416C211.524 86.416 209.583 85.792 208.127 84.544C206.671 83.2613 205.943 81.5627 205.943 79.448V77.472C205.943 75.3573 206.688 73.676 208.179 72.428C209.669 71.18 211.645 70.556 214.107 70.556H217.487C218.665 70.556 219.879 70.7467 221.127 71.128C222.409 71.5093 223.501 72.0293 224.403 72.688V67.644C224.403 66.0147 223.9 64.68 222.895 63.64C221.889 62.6 220.589 62.08 218.995 62.08H214.939C213.309 62.08 211.992 62.4613 210.987 63.224C209.981 63.9867 209.479 65.0093 209.479 66.292H206.671C206.671 64.2813 207.433 62.6693 208.959 61.456C210.484 60.2427 212.477 59.636 214.939 59.636H218.995C221.456 59.636 223.415 60.364 224.871 61.82C226.361 63.276 227.107 65.2173 227.107 67.644V86H224.455V81.944C223.553 83.3307 222.444 84.4227 221.127 85.22C219.809 86.0173 218.475 86.416 217.123 86.416H213.951ZM217.175 83.92C218.631 83.92 220.017 83.4 221.335 82.36C222.687 81.32 223.709 79.9507 224.403 78.252V75.444C223.64 74.716 222.617 74.1267 221.335 73.676C220.087 73.2253 218.804 73 217.487 73H214.107C212.477 73 211.177 73.416 210.206 74.248C209.236 75.0453 208.751 76.12 208.751 77.472V79.448C208.751 80.8 209.219 81.892 210.155 82.724C211.091 83.5213 212.356 83.92 213.951 83.92H217.175Z" fill="#2C2C2C"/>
<path d="M52.006 124.784C51.6327 124.784 51.3287 124.672 51.094 124.448C50.8593 124.213 50.742 123.909 50.742 123.536C50.742 123.163 50.8593 122.859 51.094 122.624C51.3287 122.389 51.6327 122.272 52.006 122.272C52.3793 122.272 52.678 122.389 52.902 122.624C53.1367 122.859 53.254 123.163 53.254 123.536C53.254 123.909 53.1367 124.213 52.902 124.448C52.678 124.672 52.3793 124.784 52.006 124.784ZM71.632 124.736H66.592L65.36 128H64.448L68.72 116.8H69.136C69.392 116.8 69.584 116.965 69.712 117.296L73.76 128H72.848L71.632 124.736ZM66.864 123.984H71.36L69.12 117.984H69.104L66.864 123.984ZM75.5791 116.8H80.8591C81.6378 116.8 82.2618 117.019 82.7311 117.456C83.2005 117.883 83.4351 118.453 83.4351 119.168V120.416C83.4351 120.981 83.2538 121.483 82.8911 121.92C82.5285 122.347 82.0431 122.64 81.4351 122.8V122.816C81.7551 122.976 82.0431 123.237 82.2991 123.6C82.5551 123.963 82.7525 124.389 82.8911 124.88L83.7871 128H82.8911L81.9951 124.88C81.8245 124.315 81.5525 123.867 81.1791 123.536C80.8165 123.205 80.4005 123.04 79.9311 123.04H76.4591V128H75.5791V116.8ZM80.4591 122.256C81.0885 122.256 81.5951 122.091 81.9791 121.76C82.3631 121.419 82.5551 120.971 82.5551 120.416V119.136C82.5551 118.667 82.4005 118.293 82.0911 118.016C81.7818 117.728 81.3658 117.584 80.8431 117.584H76.4591V122.256H80.4591ZM90.7233 128C90.4779 128 90.2806 127.925 90.1313 127.776C89.9819 127.627 89.9073 127.429 89.9073 127.184V116.8H94.5633C95.4486 116.8 96.1579 117.019 96.6913 117.456C97.2353 117.893 97.5073 118.469 97.5073 119.184V120.096C97.5073 120.533 97.4113 120.939 97.2193 121.312C97.0273 121.675 96.7713 121.957 96.4513 122.16V122.176C96.9846 122.304 97.4113 122.571 97.7313 122.976C98.0513 123.371 98.2113 123.835 98.2113 124.368V125.232C98.2113 126.064 97.9393 126.736 97.3953 127.248C96.8513 127.749 96.1259 128 95.2193 128H90.7233ZM94.8833 121.968C95.4059 121.968 95.8273 121.797 96.1473 121.456C96.4673 121.115 96.6273 120.661 96.6273 120.096V119.184C96.6273 118.715 96.4353 118.331 96.0513 118.032C95.6779 117.733 95.1819 117.584 94.5633 117.584H90.7873V121.968H94.8833ZM95.1393 127.2C95.8006 127.2 96.3286 127.024 96.7233 126.672C97.1286 126.309 97.3313 125.829 97.3313 125.232V124.368C97.3313 123.877 97.1553 123.483 96.8033 123.184C96.4619 122.875 96.0086 122.72 95.4433 122.72H90.7873V127.2H95.1393ZM106.46 124.736H101.42L100.188 128H99.2761L103.548 116.8H103.964C104.22 116.8 104.412 116.965 104.54 117.296L108.588 128H107.676L106.46 124.736ZM101.692 123.984H106.188L103.948 117.984H103.932L101.692 123.984ZM111.13 128C110.874 128 110.671 127.931 110.522 127.792C110.383 127.643 110.314 127.435 110.314 127.168V116.8H111.194V127.2H117.274V128H111.13ZM120.378 117.568H116.826V116.8H124.81V117.568H121.258V128H120.378V117.568ZM126.927 116.8H127.807V128H126.927V116.8ZM133.872 128.128C133.189 128.128 132.581 127.963 132.048 127.632C131.525 127.301 131.12 126.837 130.832 126.24C130.544 125.632 130.4 124.933 130.4 124.144V120.64C130.4 119.851 130.544 119.157 130.832 118.56C131.13 117.963 131.546 117.499 132.08 117.168C132.624 116.837 133.242 116.672 133.936 116.672H135.632C136.293 116.672 136.88 116.816 137.392 117.104C137.904 117.392 138.298 117.797 138.576 118.32C138.853 118.832 138.992 119.424 138.992 120.096H138.144C138.144 119.307 137.914 118.672 137.456 118.192C136.997 117.701 136.389 117.456 135.632 117.456H133.936C133.146 117.456 132.506 117.749 132.016 118.336C131.525 118.923 131.28 119.691 131.28 120.64V124.144C131.28 125.104 131.514 125.877 131.984 126.464C132.464 127.04 133.093 127.328 133.872 127.328H135.6C136.378 127.328 137.002 127.067 137.472 126.544C137.941 126.011 138.176 125.307 138.176 124.432H139.024C139.024 125.168 138.88 125.819 138.592 126.384C138.314 126.939 137.914 127.371 137.392 127.68C136.88 127.979 136.282 128.128 135.6 128.128H133.872ZM145.22 116.8H146.1L150.212 124.48L154.212 116.8H155.076V128H154.212V118.448L150.644 125.264C150.569 125.403 150.5 125.499 150.436 125.552C150.382 125.605 150.318 125.632 150.244 125.632H149.972L146.084 118.448V128H145.22V116.8ZM158.645 128C158.389 128 158.186 127.925 158.037 127.776C157.898 127.627 157.829 127.419 157.829 127.152V116.8H165.045V117.568H158.709V121.888H164.565V122.656H158.709V127.216H165.045V128H158.645ZM168.13 128C167.874 128 167.671 127.931 167.522 127.792C167.383 127.643 167.314 127.44 167.314 127.184V116.8H171.746C172.514 116.8 173.191 116.949 173.778 117.248C174.364 117.547 174.818 117.968 175.138 118.512C175.458 119.056 175.618 119.68 175.618 120.384V124.08C175.618 125.371 175.292 126.347 174.642 127.008C174.002 127.669 173.058 128 171.81 128H168.13ZM171.794 127.2C172.764 127.2 173.495 126.939 173.986 126.416C174.487 125.883 174.738 125.104 174.738 124.08V120.384C174.738 119.541 174.46 118.864 173.906 118.352C173.362 117.84 172.636 117.584 171.73 117.584H168.194V127.2H171.794ZM178.145 116.8H179.025V128H178.145V116.8ZM185.091 128.128C184.408 128.128 183.8 127.963 183.267 127.632C182.744 127.301 182.339 126.837 182.051 126.24C181.763 125.632 181.618 124.933 181.618 124.144V120.64C181.618 119.851 181.763 119.157 182.051 118.56C182.349 117.963 182.765 117.499 183.299 117.168C183.843 116.837 184.461 116.672 185.155 116.672H186.851C187.512 116.672 188.099 116.816 188.611 117.104C189.123 117.392 189.517 117.797 189.795 118.32C190.072 118.832 190.211 119.424 190.211 120.096H189.363C189.363 119.307 189.133 118.672 188.675 118.192C188.216 117.701 187.608 117.456 186.851 117.456H185.155C184.365 117.456 183.725 117.749 183.235 118.336C182.744 118.923 182.499 119.691 182.499 120.64V124.144C182.499 125.104 182.733 125.877 183.203 126.464C183.683 127.04 184.312 127.328 185.091 127.328H186.819C187.597 127.328 188.221 127.067 188.691 126.544C189.16 126.011 189.395 125.307 189.395 124.432H190.243C190.243 125.168 190.099 125.819 189.811 126.384C189.533 126.939 189.133 127.371 188.611 127.68C188.099 127.979 187.501 128.128 186.819 128.128H185.091ZM198.335 124.736H193.295L192.063 128H191.151L195.423 116.8H195.839C196.095 116.8 196.287 116.965 196.415 117.296L200.463 128H199.551L198.335 124.736ZM193.567 123.984H198.063L195.823 117.984H195.807L193.567 123.984ZM203.005 128C202.749 128 202.546 127.931 202.397 127.792C202.258 127.643 202.189 127.435 202.189 127.168V116.8H203.069V127.2H209.149V128H203.005ZM52.006 147.784C51.6327 147.784 51.3287 147.672 51.094 147.448C50.8593 147.213 50.742 146.909 50.742 146.536C50.742 146.163 50.8593 145.859 51.094 145.624C51.3287 145.389 51.6327 145.272 52.006 145.272C52.3793 145.272 52.678 145.389 52.902 145.624C53.1367 145.859 53.254 146.163 53.254 146.536C53.254 146.909 53.1367 147.213 52.902 147.448C52.678 147.672 52.3793 147.784 52.006 147.784ZM65.376 139.8H66.256L70.368 147.48L74.368 139.8H75.232V151H74.368V141.448L70.8 148.264C70.7253 148.403 70.656 148.499 70.592 148.552C70.5387 148.605 70.4747 148.632 70.4 148.632H70.128L66.24 141.448V151H65.376V139.8ZM80.7054 151.128C79.756 151.128 78.9987 150.845 78.4334 150.28C77.8787 149.715 77.6014 148.947 77.6014 147.976H78.4654C78.4654 148.701 78.668 149.277 79.0734 149.704C79.4787 150.12 80.028 150.328 80.7214 150.328H82.5134C83.1854 150.328 83.724 150.173 84.1294 149.864C84.5454 149.555 84.7534 149.149 84.7534 148.648V147.56C84.7534 147.155 84.604 146.808 84.3054 146.52C84.0067 146.232 83.5907 146.045 83.0574 145.96L80.1934 145.48C79.4254 145.352 78.8227 145.075 78.3854 144.648C77.9587 144.221 77.7454 143.688 77.7454 143.048V142.12C77.7454 141.384 78.0227 140.792 78.5774 140.344C79.132 139.896 79.8627 139.672 80.7694 139.672H82.5774C83.4414 139.672 84.1347 139.933 84.6574 140.456C85.1907 140.979 85.4574 141.667 85.4574 142.52H84.5934C84.5934 141.901 84.4067 141.405 84.0334 141.032C83.6707 140.648 83.1854 140.456 82.5774 140.456H80.7694C80.1187 140.456 79.596 140.611 79.2014 140.92C78.8174 141.219 78.6254 141.619 78.6254 142.12V143.048C78.6254 143.475 78.7694 143.832 79.0574 144.12C79.3454 144.408 79.7507 144.595 80.2734 144.68L83.1214 145.176C83.9107 145.315 84.524 145.592 84.9614 146.008C85.4094 146.424 85.6334 146.941 85.6334 147.56V148.648C85.6334 149.395 85.3507 149.997 84.7854 150.456C84.22 150.904 83.468 151.128 82.5294 151.128H80.7054ZM88.7233 151C88.4779 151 88.2806 150.925 88.1313 150.776C87.9819 150.627 87.9073 150.429 87.9073 150.184V139.8H92.5633C93.4486 139.8 94.1579 140.019 94.6913 140.456C95.2353 140.893 95.5073 141.469 95.5073 142.184V143.096C95.5073 143.533 95.4113 143.939 95.2193 144.312C95.0273 144.675 94.7713 144.957 94.4513 145.16V145.176C94.9846 145.304 95.4113 145.571 95.7313 145.976C96.0513 146.371 96.2113 146.835 96.2113 147.368V148.232C96.2113 149.064 95.9393 149.736 95.3953 150.248C94.8513 150.749 94.1259 151 93.2193 151H88.7233ZM92.8833 144.968C93.4059 144.968 93.8273 144.797 94.1473 144.456C94.4673 144.115 94.6273 143.661 94.6273 143.096V142.184C94.6273 141.715 94.4353 141.331 94.0513 141.032C93.6779 140.733 93.1819 140.584 92.5633 140.584H88.7873V144.968H92.8833ZM93.1393 150.2C93.8006 150.2 94.3286 150.024 94.7233 149.672C95.1286 149.309 95.3313 148.829 95.3313 148.232V147.368C95.3313 146.877 95.1553 146.483 94.8033 146.184C94.4619 145.875 94.0086 145.72 93.4433 145.72H88.7873V150.2H93.1393ZM52.006 170.784C51.6327 170.784 51.3287 170.672 51.094 170.448C50.8593 170.213 50.742 169.909 50.742 169.536C50.742 169.163 50.8593 168.859 51.094 168.624C51.3287 168.389 51.6327 168.272 52.006 168.272C52.3793 168.272 52.678 168.389 52.902 168.624C53.1367 168.859 53.254 169.163 53.254 169.536C53.254 169.909 53.1367 170.213 52.902 170.448C52.678 170.672 52.3793 170.784 52.006 170.784ZM71.632 170.736H66.592L65.36 174H64.448L68.72 162.8H69.136C69.392 162.8 69.584 162.965 69.712 163.296L73.76 174H72.848L71.632 170.736ZM66.864 169.984H71.36L69.12 163.984H69.104L66.864 169.984ZM76.3014 174C76.0454 174 75.8427 173.931 75.6934 173.792C75.5547 173.643 75.4854 173.435 75.4854 173.168V162.8H76.3654V173.2H82.4454V174H76.3014ZM85.1451 174C84.8891 174 84.6865 173.931 84.5371 173.792C84.3985 173.643 84.3291 173.435 84.3291 173.168V162.8H85.2091V173.2H91.2891V174H85.1451ZM93.3329 162.8H94.2129V174H93.3329V162.8ZM100.358 174.128C99.7073 174.128 99.1313 173.984 98.63 173.696C98.1287 173.397 97.7393 172.981 97.462 172.448C97.1953 171.904 97.062 171.285 97.062 170.592V162.8H97.942V170.608C97.942 171.419 98.1607 172.075 98.598 172.576C99.046 173.077 99.6327 173.328 100.358 173.328H102.102C102.827 173.328 103.409 173.083 103.846 172.592C104.294 172.091 104.518 171.429 104.518 170.608V162.8H105.398V170.592C105.398 171.285 105.259 171.904 104.982 172.448C104.715 172.981 104.331 173.397 103.83 173.696C103.329 173.984 102.753 174.128 102.102 174.128H100.358ZM108.079 162.8H108.959L113.071 170.48L117.071 162.8H117.935V174H117.071V164.448L113.503 171.264C113.428 171.403 113.359 171.499 113.295 171.552C113.242 171.605 113.178 171.632 113.103 171.632H112.831L108.943 164.448V174H108.079V162.8Z" fill="#7F7F7F"/>
<defs>
<linearGradient id="paint0_linear_1192_38" x1="499.067" y1="239.182" x2="499.873" y2="98.0523" gradientUnits="userSpaceOnUse">
<stop offset="0.045" stop-color="#F2F2F2"/>
<stop offset="1" stop-color="#B5B5B5"/>
</linearGradient>
</defs>
</svg>
