<svg width="922" height="162" viewBox="0 0 922 162" fill="none" xmlns="http://www.w3.org/2000/svg">
<line x1="771.422" y1="93.4848" x2="825.428" y2="51.5961" stroke="#185CA6" stroke-width="5" stroke-linecap="round"/>
<line x1="782.394" y1="44.7741" x2="826.018" y2="49.8288" stroke="#185CA6" stroke-width="5" stroke-linecap="round"/>
<line x1="820.96" y1="95.0071" x2="826.002" y2="51.3823" stroke="#185CA6" stroke-width="5" stroke-linecap="round"/>
<path d="M207.818 96.768C203.53 96.768 199.722 95.744 196.394 93.696C193.13 91.648 190.57 88.8 188.714 85.152C186.922 81.44 186.026 77.184 186.026 72.384V52.416C186.026 47.616 186.922 43.36 188.714 39.648C190.57 35.936 193.162 33.088 196.49 31.104C199.882 29.056 203.786 28.032 208.202 28.032H218.378C222.538 28.032 226.186 28.928 229.322 30.72C232.522 32.512 234.986 35.04 236.714 38.304C238.506 41.568 239.402 45.312 239.402 49.536H232.49C232.49 44.992 231.178 41.344 228.554 38.592C225.994 35.776 222.602 34.368 218.378 34.368H208.202C203.658 34.368 200.01 36.032 197.258 39.36C194.506 42.624 193.13 46.976 193.13 52.416V72.384C193.13 77.824 194.474 82.208 197.162 85.536C199.85 88.8 203.402 90.432 207.818 90.432H218.186C222.538 90.432 226.026 88.896 228.65 85.824C231.338 82.752 232.682 78.72 232.682 73.728H239.594C239.594 78.272 238.698 82.304 236.906 85.824C235.114 89.28 232.586 91.968 229.322 93.888C226.122 95.808 222.41 96.768 218.186 96.768H207.818ZM266.873 96.768C261.497 96.768 257.177 95.104 253.913 91.776C250.649 88.448 249.017 84.064 249.017 78.624V65.472C249.017 60.032 250.649 55.648 253.913 52.32C257.241 48.992 261.625 47.328 267.065 47.328H274.937C280.377 47.328 284.729 48.992 287.993 52.32C291.321 55.648 292.985 60.032 292.985 65.472V78.624C292.985 84.064 291.321 88.448 287.993 91.776C284.665 95.104 280.249 96.768 274.745 96.768H266.873ZM274.745 90.624C278.201 90.624 280.953 89.536 283.001 87.36C285.049 85.12 286.073 82.208 286.073 78.624V65.472C286.073 61.888 285.049 59.008 283.001 56.832C280.953 54.592 278.265 53.472 274.937 53.472H267.065C263.737 53.472 261.049 54.592 259.001 56.832C256.953 59.008 255.929 61.888 255.929 65.472V78.624C255.929 82.272 256.921 85.184 258.905 87.36C260.889 89.536 263.545 90.624 266.873 90.624H274.745ZM305.687 48.096H312.407V55.2C313.879 52.896 315.799 51.008 318.167 49.536C320.535 48.064 322.903 47.328 325.271 47.328H331.799C336.215 47.328 339.767 48.832 342.455 51.84C345.207 54.848 346.583 58.784 346.583 63.648V96H339.671V63.456C339.671 60.512 338.935 58.112 337.463 56.256C335.991 54.4 334.039 53.472 331.607 53.472H325.463C322.455 53.472 319.703 54.656 317.207 57.024C314.775 59.392 313.239 62.432 312.599 66.144V96H305.687V48.096ZM379.44 96C374.384 96 370.736 94.912 368.496 92.736C366.32 90.56 365.232 86.976 365.232 81.984V54.24H356.784V48.096H365.232V33.6H372.144V48.096H384.624V54.24H372.144V81.984C372.144 84.8 372.688 86.816 373.776 88.032C374.928 89.248 376.816 89.856 379.44 89.856H384.624V96H379.44ZM409.979 96.768C405.307 96.768 401.563 95.552 398.747 93.12C395.995 90.688 394.619 87.424 394.619 83.328V80.256C394.619 76.224 396.059 72.992 398.939 70.56C401.819 68.128 405.627 66.912 410.363 66.912H416.507C418.619 66.912 420.795 67.232 423.035 67.872C425.275 68.512 427.195 69.376 428.795 70.464V62.496C428.795 59.808 427.963 57.632 426.299 55.968C424.635 54.24 422.427 53.376 419.675 53.376H411.995C409.243 53.376 407.035 54.016 405.371 55.296C403.707 56.576 402.875 58.272 402.875 60.384H395.963C395.963 56.48 397.435 53.344 400.379 50.976C403.323 48.544 407.195 47.328 411.995 47.328H419.675C424.411 47.328 428.219 48.736 431.099 51.552C434.043 54.304 435.515 57.952 435.515 62.496V96H428.987V89.28C427.515 91.584 425.563 93.408 423.131 94.752C420.763 96.096 418.299 96.768 415.739 96.768H409.979ZM415.931 90.72C418.939 90.72 421.627 89.792 423.995 87.936C426.363 86.08 427.963 83.616 428.795 80.544V76.992C427.515 75.776 425.723 74.816 423.419 74.112C421.179 73.344 418.875 72.96 416.507 72.96H410.363C407.739 72.96 405.595 73.632 403.931 74.976C402.331 76.32 401.531 78.08 401.531 80.256V83.328C401.531 85.568 402.299 87.36 403.835 88.704C405.371 90.048 407.419 90.72 409.979 90.72H415.931ZM421.019 25.728H428.891L419.387 40.32H413.051L421.019 25.728ZM465.051 96.768C459.803 96.768 455.579 95.2 452.379 92.064C449.179 88.864 447.579 84.64 447.579 79.392V65.664C447.579 60.16 449.179 55.744 452.379 52.416C455.579 49.024 459.771 47.328 464.955 47.328H472.827C477.755 47.328 481.723 48.704 484.731 51.456C487.739 54.208 489.243 57.824 489.243 62.304H482.523C482.523 59.68 481.627 57.568 479.835 55.968C478.107 54.304 475.771 53.472 472.827 53.472H464.955C461.819 53.472 459.291 54.592 457.371 56.832C455.451 59.072 454.491 62.016 454.491 65.664V79.392C454.491 82.784 455.451 85.504 457.371 87.552C459.355 89.6 461.915 90.624 465.051 90.624H472.923C475.931 90.624 478.331 89.568 480.123 87.456C481.979 85.344 482.907 82.528 482.907 79.008H489.627C489.627 84.32 488.091 88.608 485.019 91.872C481.947 95.136 477.915 96.768 472.923 96.768H465.051ZM519.409 96C514.353 96 510.705 94.912 508.465 92.736C506.289 90.56 505.201 86.976 505.201 81.984V54.24H496.753V48.096H505.201V33.6H512.113V48.096H524.593V54.24H512.113V81.984C512.113 84.8 512.657 86.816 513.745 88.032C514.897 89.248 516.785 89.856 519.409 89.856H524.593V96H519.409ZM549.948 96.768C545.276 96.768 541.532 95.552 538.716 93.12C535.964 90.688 534.588 87.424 534.588 83.328V80.256C534.588 76.224 536.028 72.992 538.908 70.56C541.788 68.128 545.596 66.912 550.332 66.912H556.476C558.588 66.912 560.764 67.232 563.004 67.872C565.244 68.512 567.164 69.376 568.764 70.464V62.496C568.764 59.808 567.932 57.632 566.268 55.968C564.604 54.24 562.396 53.376 559.644 53.376H551.964C549.212 53.376 547.004 54.016 545.34 55.296C543.676 56.576 542.844 58.272 542.844 60.384H535.932C535.932 56.48 537.404 53.344 540.348 50.976C543.292 48.544 547.164 47.328 551.964 47.328H559.644C564.38 47.328 568.188 48.736 571.068 51.552C574.012 54.304 575.484 57.952 575.484 62.496V96H568.956V89.28C567.484 91.584 565.532 93.408 563.1 94.752C560.732 96.096 558.268 96.768 555.708 96.768H549.948ZM555.9 90.72C558.908 90.72 561.596 89.792 563.964 87.936C566.332 86.08 567.932 83.616 568.764 80.544V76.992C567.484 75.776 565.692 74.816 563.388 74.112C561.148 73.344 558.844 72.96 556.476 72.96H550.332C547.708 72.96 545.564 73.632 543.9 74.976C542.3 76.32 541.5 78.08 541.5 80.256V83.328C541.5 85.568 542.268 87.36 543.804 88.704C545.34 90.048 547.388 90.72 549.948 90.72H555.9ZM589.468 48.096H596.188V55.2C597.66 52.896 599.58 51.008 601.948 49.536C604.316 48.064 606.684 47.328 609.052 47.328H615.58C619.996 47.328 623.548 48.832 626.236 51.84C628.988 54.848 630.364 58.784 630.364 63.648V96H623.452V63.456C623.452 60.512 622.716 58.112 621.244 56.256C619.772 54.4 617.82 53.472 615.388 53.472H609.244C606.236 53.472 603.484 54.656 600.988 57.024C598.556 59.392 597.02 62.432 596.38 66.144V96H589.468V48.096ZM660.341 96.768C654.965 96.768 650.645 95.104 647.381 91.776C644.117 88.448 642.485 84.064 642.485 78.624V65.472C642.485 60.032 644.117 55.648 647.381 52.32C650.709 48.992 655.093 47.328 660.533 47.328H668.405C673.845 47.328 678.197 48.992 681.461 52.32C684.789 55.648 686.453 60.032 686.453 65.472V78.624C686.453 84.064 684.789 88.448 681.461 91.776C678.133 95.104 673.717 96.768 668.213 96.768H660.341ZM668.213 90.624C671.669 90.624 674.421 89.536 676.469 87.36C678.517 85.12 679.541 82.208 679.541 78.624V65.472C679.541 61.888 678.517 59.008 676.469 56.832C674.421 54.592 671.733 53.472 668.405 53.472H660.533C657.205 53.472 654.517 54.592 652.469 56.832C650.421 59.008 649.397 61.888 649.397 65.472V78.624C649.397 82.272 650.389 85.184 652.373 87.36C654.357 89.536 657.013 90.624 660.341 90.624H668.213ZM712.787 96.768C707.923 96.768 704.019 95.392 701.075 92.64C698.131 89.888 696.659 86.272 696.659 81.792H703.379C703.379 84.48 704.243 86.656 705.971 88.32C707.699 89.984 709.971 90.816 712.787 90.816H721.139C723.891 90.816 726.131 90.272 727.859 89.184C729.587 88.032 730.451 86.56 730.451 84.768V81.504C730.451 80.288 729.971 79.232 729.011 78.336C728.051 77.376 726.803 76.736 725.267 76.416L708.659 73.536C705.331 72.96 702.643 71.712 700.595 69.792C698.611 67.808 697.619 65.504 697.619 62.88V59.712C697.619 56 699.027 53.024 701.843 50.784C704.659 48.48 708.371 47.328 712.979 47.328H721.235C725.715 47.328 729.331 48.608 732.083 51.168C734.835 53.664 736.211 56.992 736.211 61.152H729.491C729.427 58.784 728.627 56.896 727.091 55.488C725.619 54.016 723.667 53.28 721.235 53.28H712.979C710.419 53.28 708.371 53.888 706.835 55.104C705.299 56.256 704.531 57.792 704.531 59.712V62.496C704.531 63.712 705.043 64.8 706.067 65.76C707.155 66.72 708.531 67.328 710.195 67.584L726.707 70.464C729.907 71.04 732.467 72.288 734.387 74.208C736.371 76.128 737.363 78.432 737.363 81.12V84.96C737.363 88.48 735.859 91.328 732.851 93.504C729.907 95.68 726.003 96.768 721.139 96.768H712.787Z" fill="#185CA6"/>
<line x1="190.002" y1="101.5" x2="824.002" y2="102.489" stroke="#185CA6" stroke-width="3"/>
</svg>
