<svg width="134" height="46" viewBox="0 0 134 46" fill="none" xmlns="http://www.w3.org/2000/svg">
<rect width="134" height="46" rx="23" fill="#9CCA4D"/>
<path d="M39.2046 13.5H41.0546V31H39.2046V13.5ZM45.2022 18.525H46.9522V20.375C47.3356 19.775 47.8356 19.2833 48.4522 18.9C49.0689 18.5167 49.6856 18.325 50.3022 18.325H52.0022C53.1522 18.325 54.0772 18.7167 54.7772 19.5C55.4939 20.2833 55.8522 21.3083 55.8522 22.575V31H54.0522V22.525C54.0522 21.7583 53.8606 21.1333 53.4772 20.65C53.0939 20.1667 52.5856 19.925 51.9522 19.925H50.3522C49.5689 19.925 48.8522 20.2333 48.2022 20.85C47.5689 21.4667 47.1689 22.2583 47.0022 23.225V31H45.2022V18.525ZM60.6124 20.125H58.4624V18.525H60.6124V17.55C60.6124 16.1833 60.9624 15.15 61.6624 14.45C62.3624 13.75 63.3874 13.4 64.7374 13.4H65.6874V14.95H64.7374C63.9374 14.95 63.3457 15.1667 62.9624 15.6C62.5957 16.0167 62.4124 16.6667 62.4124 17.55V18.525H65.4124V20.125H62.4124V31H60.6124V20.125ZM71.8376 31.2C70.4376 31.2 69.3126 30.7667 68.4626 29.9C67.6126 29.0333 67.1876 27.8917 67.1876 26.475V23.05C67.1876 21.6333 67.6126 20.4917 68.4626 19.625C69.3293 18.7583 70.4709 18.325 71.8876 18.325H73.9376C75.3543 18.325 76.4876 18.7583 77.3376 19.625C78.2043 20.4917 78.6376 21.6333 78.6376 23.05V26.475C78.6376 27.8917 78.2043 29.0333 77.3376 29.9C76.4709 30.7667 75.3209 31.2 73.8876 31.2H71.8376ZM73.8876 29.6C74.7876 29.6 75.5043 29.3167 76.0376 28.75C76.5709 28.1667 76.8376 27.4083 76.8376 26.475V23.05C76.8376 22.1167 76.5709 21.3667 76.0376 20.8C75.5043 20.2167 74.8043 19.925 73.9376 19.925H71.8876C71.0209 19.925 70.3209 20.2167 69.7876 20.8C69.2543 21.3667 68.9876 22.1167 68.9876 23.05V26.475C68.9876 27.425 69.2459 28.1833 69.7626 28.75C70.2793 29.3167 70.9709 29.6 71.8376 29.6H73.8876Z" fill="white"/>
<line x1="90.0035" y1="29.7405" x2="105.507" y2="17.8475" stroke="white" stroke-width="1.2" stroke-linecap="round"/>
<line x1="93.08" y1="15.9268" x2="105.62" y2="17.4477" stroke="white" stroke-width="1.2" stroke-linecap="round"/>
<line x1="104.121" y1="30.2148" x2="105.638" y2="17.6748" stroke="white" stroke-width="1.2" stroke-linecap="round"/>
</svg>
