<svg width="642" height="311" viewBox="0 0 642 311" fill="none" xmlns="http://www.w3.org/2000/svg">
<rect width="642" height="304" rx="18" fill="#F7F7F7"/>
<path d="M438.4 274.6C430.8 274.6 424 272.8 418 269.2C412.133 265.6 407.533 260.6 404.2 254.2C401 247.667 399.4 240.133 399.4 231.6V174.4C399.4 165.867 401 158.4 404.2 152C407.533 145.467 412.133 140.4 418 136.8C424 133.2 430.8 131.4 438.4 131.4H459.6C467.333 131.4 474.133 133.2 480 136.8C485.867 140.4 490.4 145.467 493.6 152C496.8 158.4 498.4 165.867 498.4 174.4V231.6C498.4 240.133 496.8 247.667 493.6 254.2C490.4 260.6 485.867 265.6 480 269.2C474.133 272.8 467.333 274.6 459.6 274.6H438.4ZM459.2 264.6C467.733 264.6 474.533 261.6 479.6 255.6C484.8 249.467 487.4 241.467 487.4 231.6V174.4C487.4 164.4 484.8 156.4 479.6 150.4C474.533 144.267 467.733 141.2 459.2 141.2H438.8C430.267 141.2 423.4 144.267 418.2 150.4C413 156.4 410.4 164.4 410.4 174.4V231.6C410.4 241.467 413 249.467 418.2 255.6C423.4 261.6 430.267 264.6 438.8 264.6H459.2ZM591.134 243.2H527.534C521.934 243.2 519.134 241 519.134 236.6V233L591.534 133H602.134V233.4H619.734V243.2H602.134V273H591.134V243.2ZM591.534 233.4V150H591.334L531.134 233.4H591.534Z" fill="url(#paint0_linear_1192_39)"/>
<path d="M41.472 49.6H58.632C61.1627 49.6 63.1907 50.3107 64.716 51.732C66.2413 53.1187 67.004 54.9733 67.004 57.296V61.352C67.004 63.1893 66.4147 64.8187 65.236 66.24C64.0573 67.6267 62.48 68.58 60.504 69.1V69.152C61.544 69.672 62.48 70.5213 63.312 71.7C64.144 72.8787 64.7853 74.2653 65.236 75.86L68.148 86H65.236L62.324 75.86C61.7693 74.0227 60.8853 72.5667 59.672 71.492C58.4933 70.4173 57.1413 69.88 55.616 69.88H44.332V86H41.472V49.6ZM57.332 67.332C59.3773 67.332 61.024 66.7947 62.272 65.72C63.52 64.6107 64.144 63.1547 64.144 61.352V57.192C64.144 55.6667 63.6413 54.4533 62.636 53.552C61.6307 52.616 60.2787 52.148 58.58 52.148H44.332V67.332H57.332ZM81.8021 86.416C79.3754 86.416 77.4341 85.792 75.9781 84.544C74.5221 83.2613 73.7941 81.5627 73.7941 79.448V77.472C73.7941 75.3573 74.5394 73.676 76.0301 72.428C77.5207 71.18 79.4967 70.556 81.9581 70.556H85.3381C86.5167 70.556 87.7301 70.7467 88.9781 71.128C90.2607 71.5093 91.3527 72.0293 92.2541 72.688V67.644C92.2541 66.0147 91.7514 64.68 90.7461 63.64C89.7407 62.6 88.4407 62.08 86.8461 62.08H82.7901C81.1607 62.08 79.8434 62.4613 78.8381 63.224C77.8327 63.9867 77.3301 65.0093 77.3301 66.292H74.5221C74.5221 64.2813 75.2847 62.6693 76.8101 61.456C78.3354 60.2427 80.3287 59.636 82.7901 59.636H86.8461C89.3074 59.636 91.2661 60.364 92.7221 61.82C94.2127 63.276 94.9581 65.2173 94.9581 67.644V86H92.3061V81.944C91.4047 83.3307 90.2954 84.4227 88.9781 85.22C87.6607 86.0173 86.3261 86.416 84.9741 86.416H81.8021ZM85.0261 83.92C86.4821 83.92 87.8687 83.4 89.1861 82.36C90.5381 81.32 91.5607 79.9507 92.2541 78.252V75.444C91.4914 74.716 90.4687 74.1267 89.1861 73.676C87.9381 73.2253 86.6554 73 85.3381 73H81.9581C80.3287 73 79.0287 73.416 78.0581 74.248C77.0874 75.0453 76.6021 76.12 76.6021 77.472V79.448C76.6021 80.8 77.0701 81.892 78.0061 82.724C78.9421 83.5213 80.2074 83.92 81.8021 83.92H85.0261ZM110.758 86.416C108.193 86.416 106.113 85.532 104.518 83.764C102.924 81.9613 102.126 79.604 102.126 76.692V69.724C102.126 66.708 102.958 64.2813 104.622 62.444C106.321 60.572 108.54 59.636 111.278 59.636H115.23C116.444 59.636 117.622 59.9653 118.766 60.624C119.945 61.248 120.881 62.0973 121.574 63.172V49.6H124.33V86H121.626V81.632C120.76 83.1227 119.685 84.3013 118.402 85.168C117.154 86 115.837 86.416 114.45 86.416H110.758ZM114.398 83.92C116.028 83.92 117.536 83.2093 118.922 81.788C120.309 80.332 121.193 78.5813 121.574 76.536V68.112C121.228 66.344 120.465 64.9053 119.286 63.796C118.108 62.6867 116.738 62.132 115.178 62.132H111.33C109.389 62.132 107.829 62.8253 106.65 64.212C105.506 65.5987 104.934 67.436 104.934 69.724V76.692C104.934 78.8413 105.472 80.592 106.546 81.944C107.656 83.2613 109.077 83.92 110.81 83.92H114.398ZM135.163 55.632C134.469 55.632 133.897 55.424 133.447 55.008C133.031 54.592 132.823 54.0373 132.823 53.344C132.823 52.6507 133.031 52.096 133.447 51.68C133.897 51.2293 134.469 51.004 135.163 51.004C135.856 51.004 136.411 51.2293 136.827 51.68C137.243 52.096 137.451 52.6507 137.451 53.344C137.451 54.0027 137.243 54.5573 136.827 55.008C136.411 55.424 135.856 55.632 135.163 55.632ZM133.759 60.052H136.515V86H133.759V60.052ZM154.191 86.416C151.418 86.416 149.182 85.5493 147.483 83.816C145.784 82.048 144.935 79.7427 144.935 76.9V69.152C144.935 66.3093 145.784 64.0213 147.483 62.288C149.216 60.52 151.487 59.636 154.295 59.636H158.403C161.211 59.636 163.464 60.52 165.163 62.288C166.896 64.0213 167.763 66.3093 167.763 69.152V76.9C167.763 79.7427 166.896 82.048 165.163 83.816C163.43 85.5493 161.142 86.416 158.299 86.416H154.191ZM158.299 83.92C160.31 83.92 161.922 83.2787 163.135 81.996C164.383 80.7133 165.007 79.0147 165.007 76.9V69.152C165.007 67.0373 164.4 65.3387 163.187 64.056C161.974 62.7733 160.379 62.132 158.403 62.132H154.295C152.319 62.132 150.724 62.7733 149.511 64.056C148.332 65.3387 147.743 67.0373 147.743 69.152V76.9C147.743 79.0147 148.332 80.7133 149.511 81.996C150.69 83.2787 152.25 83.92 154.191 83.92H158.299ZM188.636 49.6H205.744C208.309 49.6 210.372 50.3107 211.932 51.732C213.492 53.1187 214.272 54.9733 214.272 57.296V63.068C214.272 65.5987 213.44 67.644 211.776 69.204C210.112 70.7293 207.911 71.492 205.172 71.492H191.496V86H188.636V49.6ZM205.12 68.892C207.027 68.892 208.552 68.3547 209.696 67.28C210.84 66.2053 211.412 64.784 211.412 63.016V57.244C211.412 55.7187 210.875 54.488 209.8 53.552C208.76 52.616 207.391 52.148 205.692 52.148H191.496V68.892H205.12ZM220.522 60.052H223.226V64.264C223.988 62.9467 225.08 61.9067 226.502 61.144C227.923 60.3467 229.448 59.948 231.078 59.948H233.002V62.444H231.026C228.772 62.444 226.918 63.172 225.462 64.628C224.04 66.084 223.33 67.9733 223.33 70.296V86H220.522V60.052ZM246.003 86.416C243.23 86.416 240.994 85.5493 239.295 83.816C237.597 82.048 236.747 79.7427 236.747 76.9V69.152C236.747 66.3093 237.597 64.0213 239.295 62.288C241.029 60.52 243.299 59.636 246.107 59.636H250.215C253.023 59.636 255.277 60.52 256.975 62.288C258.709 64.0213 259.575 66.3093 259.575 69.152V76.9C259.575 79.7427 258.709 82.048 256.975 83.816C255.242 85.5493 252.954 86.416 250.111 86.416H246.003ZM250.111 83.92C252.122 83.92 253.734 83.2787 254.947 81.996C256.195 80.7133 256.819 79.0147 256.819 76.9V69.152C256.819 67.0373 256.213 65.3387 254.999 64.056C253.786 62.7733 252.191 62.132 250.215 62.132H246.107C244.131 62.132 242.537 62.7733 241.323 64.056C240.145 65.3387 239.555 67.0373 239.555 69.152V76.9C239.555 79.0147 240.145 80.7133 241.323 81.996C242.502 83.2787 244.062 83.92 246.003 83.92H250.111ZM276.664 86C274.029 86 272.14 85.4453 270.996 84.336C269.852 83.192 269.28 81.32 269.28 78.72V62.548H264.704V60.052H269.28V52.2H272.036V60.052H278.796V62.548H272.036V78.72C272.036 80.4187 272.382 81.6493 273.076 82.412C273.769 83.14 274.93 83.504 276.56 83.504H278.796V86H276.664ZM293.583 86.416C290.844 86.416 288.626 85.584 286.927 83.92C285.263 82.256 284.431 80.0547 284.431 77.316V69.256C284.431 66.3787 285.263 64.056 286.927 62.288C288.626 60.52 290.844 59.636 293.583 59.636H297.847C300.482 59.636 302.596 60.5027 304.191 62.236C305.82 63.9347 306.635 66.2053 306.635 69.048V73.416H287.239V77.316C287.239 79.292 287.811 80.8867 288.955 82.1C290.134 83.3133 291.676 83.92 293.583 83.92H297.535C299.407 83.92 300.915 83.3827 302.059 82.308C303.238 81.1987 303.827 79.76 303.827 77.992H306.531C306.531 80.5227 305.699 82.568 304.035 84.128C302.406 85.6533 300.239 86.416 297.535 86.416H293.583ZM303.879 71.024V69.048C303.879 66.968 303.324 65.304 302.215 64.056C301.106 62.7733 299.65 62.132 297.847 62.132H293.583C291.676 62.132 290.134 62.7907 288.955 64.108C287.811 65.4253 287.239 67.1413 287.239 69.256V71.024H303.879ZM321.763 86.416C319.059 86.416 316.875 85.584 315.211 83.92C313.582 82.2213 312.767 80.0027 312.767 77.264V69.256C312.767 66.3787 313.582 64.056 315.211 62.288C316.875 60.52 319.042 59.636 321.711 59.636H325.975C328.506 59.636 330.534 60.3293 332.059 61.716C333.619 63.1027 334.399 64.9227 334.399 67.176H331.695C331.695 65.6507 331.158 64.4373 330.083 63.536C329.043 62.6 327.674 62.132 325.975 62.132H321.711C319.874 62.132 318.383 62.7907 317.239 64.108C316.13 65.3907 315.575 67.1067 315.575 69.256V77.264C315.575 79.2747 316.13 80.8867 317.239 82.1C318.383 83.3133 319.891 83.92 321.763 83.92H326.027C327.76 83.92 329.164 83.3133 330.239 82.1C331.314 80.8867 331.851 79.292 331.851 77.316H334.555C334.555 80.0547 333.775 82.256 332.215 83.92C330.655 85.584 328.592 86.416 326.027 86.416H321.763ZM349.286 86.416C346.582 86.416 344.398 85.584 342.734 83.92C341.105 82.2213 340.29 80.0027 340.29 77.264V69.256C340.29 66.3787 341.105 64.056 342.734 62.288C344.398 60.52 346.565 59.636 349.234 59.636H353.498C356.029 59.636 358.057 60.3293 359.582 61.716C361.142 63.1027 361.922 64.9227 361.922 67.176H359.218C359.218 65.6507 358.681 64.4373 357.606 63.536C356.566 62.6 355.197 62.132 353.498 62.132H349.234C347.397 62.132 345.906 62.7907 344.762 64.108C343.653 65.3907 343.098 67.1067 343.098 69.256V77.264C343.098 79.2747 343.653 80.8867 344.762 82.1C345.906 83.3133 347.414 83.92 349.286 83.92H353.55C355.284 83.92 356.688 83.3133 357.762 82.1C358.837 80.8867 359.374 79.292 359.374 77.316H362.078C362.078 80.0547 361.298 82.256 359.738 83.92C358.178 85.584 356.116 86.416 353.55 86.416H349.286ZM371.194 55.632C370.501 55.632 369.929 55.424 369.478 55.008C369.062 54.592 368.854 54.0373 368.854 53.344C368.854 52.6507 369.062 52.096 369.478 51.68C369.929 51.2293 370.501 51.004 371.194 51.004C371.887 51.004 372.442 51.2293 372.858 51.68C373.274 52.096 373.482 52.6507 373.482 53.344C373.482 54.0027 373.274 54.5573 372.858 55.008C372.442 55.424 371.887 55.632 371.194 55.632ZM369.79 60.052H372.546V86H369.79V60.052ZM390.222 86.416C387.449 86.416 385.213 85.5493 383.514 83.816C381.816 82.048 380.966 79.7427 380.966 76.9V69.152C380.966 66.3093 381.816 64.0213 383.514 62.288C385.248 60.52 387.518 59.636 390.326 59.636H394.434C397.242 59.636 399.496 60.52 401.194 62.288C402.928 64.0213 403.794 66.3093 403.794 69.152V76.9C403.794 79.7427 402.928 82.048 401.194 83.816C399.461 85.5493 397.173 86.416 394.33 86.416H390.222ZM394.33 83.92C396.341 83.92 397.953 83.2787 399.166 81.996C400.414 80.7133 401.038 79.0147 401.038 76.9V69.152C401.038 67.0373 400.432 65.3387 399.218 64.056C398.005 62.7733 396.41 62.132 394.434 62.132H390.326C388.35 62.132 386.756 62.7733 385.542 64.056C384.364 65.3387 383.774 67.0373 383.774 69.152V76.9C383.774 79.0147 384.364 80.7133 385.542 81.996C386.721 83.2787 388.281 83.92 390.222 83.92H394.33ZM395.318 48.092H398.542L393.654 55.58H390.95L395.318 48.092ZM411.307 60.052H414.011V64.472C414.878 62.9813 415.97 61.8027 417.287 60.936C418.639 60.0693 420.008 59.636 421.395 59.636H424.879C427.132 59.636 428.952 60.4333 430.339 62.028C431.76 63.588 432.471 65.668 432.471 68.268V86H429.715V68.216C429.715 66.4133 429.264 64.9573 428.363 63.848C427.462 62.704 426.283 62.132 424.827 62.132H421.447C419.887 62.132 418.414 62.7733 417.027 64.056C415.64 65.3387 414.67 67.0027 414.115 69.048V86H411.307V60.052Z" fill="#2C2C2C"/>
<path d="M52.006 124.784C51.6327 124.784 51.3287 124.672 51.094 124.448C50.8593 124.213 50.742 123.909 50.742 123.536C50.742 123.163 50.8593 122.859 51.094 122.624C51.3287 122.389 51.6327 122.272 52.006 122.272C52.3793 122.272 52.678 122.389 52.902 122.624C53.1367 122.859 53.254 123.163 53.254 123.536C53.254 123.909 53.1367 124.213 52.902 124.448C52.678 124.672 52.3793 124.784 52.006 124.784ZM66.192 128C65.9467 128 65.7493 127.925 65.6 127.776C65.4507 127.627 65.376 127.429 65.376 127.184V116.8H70.032C70.9173 116.8 71.6267 117.019 72.16 117.456C72.704 117.893 72.976 118.469 72.976 119.184V120.096C72.976 120.533 72.88 120.939 72.688 121.312C72.496 121.675 72.24 121.957 71.92 122.16V122.176C72.4533 122.304 72.88 122.571 73.2 122.976C73.52 123.371 73.68 123.835 73.68 124.368V125.232C73.68 126.064 73.408 126.736 72.864 127.248C72.32 127.749 71.5947 128 70.688 128H66.192ZM70.352 121.968C70.8747 121.968 71.296 121.797 71.616 121.456C71.936 121.115 72.096 120.661 72.096 120.096V119.184C72.096 118.715 71.904 118.331 71.52 118.032C71.1467 117.733 70.6507 117.584 70.032 117.584H66.256V121.968H70.352ZM70.608 127.2C71.2693 127.2 71.7973 127.024 72.192 126.672C72.5973 126.309 72.8 125.829 72.8 125.232V124.368C72.8 123.877 72.624 123.483 72.272 123.184C71.9307 122.875 71.4773 122.72 70.912 122.72H66.256V127.2H70.608ZM79.0924 128.128C78.4417 128.128 77.8657 127.984 77.3644 127.696C76.863 127.397 76.4737 126.981 76.1964 126.448C75.9297 125.904 75.7964 125.285 75.7964 124.592V116.8H76.6764V124.608C76.6764 125.419 76.895 126.075 77.3324 126.576C77.7804 127.077 78.367 127.328 79.0924 127.328H80.8364C81.5617 127.328 82.143 127.083 82.5804 126.592C83.0284 126.091 83.2524 125.429 83.2524 124.608V116.8H84.1324V124.592C84.1324 125.285 83.9937 125.904 83.7164 126.448C83.4497 126.981 83.0657 127.397 82.5644 127.696C82.063 127.984 81.487 128.128 80.8364 128.128H79.0924ZM86.8135 116.8H92.0935C92.8722 116.8 93.4962 117.019 93.9655 117.456C94.4348 117.883 94.6695 118.453 94.6695 119.168V120.416C94.6695 120.981 94.4882 121.483 94.1255 121.92C93.7628 122.347 93.2775 122.64 92.6695 122.8V122.816C92.9895 122.976 93.2775 123.237 93.5335 123.6C93.7895 123.963 93.9868 124.389 94.1255 124.88L95.0215 128H94.1255L93.2295 124.88C93.0588 124.315 92.7868 123.867 92.4135 123.536C92.0508 123.205 91.6348 123.04 91.1655 123.04H87.6935V128H86.8135V116.8ZM91.6935 122.256C92.3228 122.256 92.8295 122.091 93.2135 121.76C93.5975 121.419 93.7895 120.971 93.7895 120.416V119.136C93.7895 118.667 93.6348 118.293 93.3255 118.016C93.0162 117.728 92.6002 117.584 92.0775 117.584H87.6935V122.256H91.6935ZM97.9108 128C97.6548 128 97.4521 127.931 97.3028 127.792C97.1641 127.643 97.0948 127.435 97.0948 127.168V116.8H97.9748V127.2H104.055V128H97.9108ZM106.099 116.8H106.979V128H106.099V116.8ZM109.892 116.8H110.756L117.22 126.608V116.8H118.068V128H117.22L110.74 118.224V128H109.892V116.8ZM124.014 128.128C123.31 128.128 122.691 127.963 122.158 127.632C121.635 127.301 121.224 126.837 120.926 126.24C120.638 125.632 120.493 124.933 120.493 124.144V120.64C120.493 119.851 120.643 119.157 120.942 118.56C121.24 117.963 121.662 117.499 122.206 117.168C122.75 116.837 123.374 116.672 124.078 116.672H125.774C126.456 116.672 127.054 116.816 127.566 117.104C128.088 117.392 128.488 117.797 128.766 118.32C129.054 118.832 129.198 119.424 129.198 120.096H128.35C128.35 119.307 128.115 118.672 127.646 118.192C127.176 117.701 126.552 117.456 125.774 117.456H124.078C123.267 117.456 122.611 117.749 122.11 118.336C121.619 118.923 121.374 119.691 121.374 120.64V124.144C121.374 125.104 121.614 125.877 122.094 126.464C122.584 127.04 123.224 127.328 124.014 127.328H125.742C126.542 127.328 127.187 127.061 127.678 126.528C128.179 125.984 128.43 125.275 128.43 124.4V123.12H125.246V122.336H129.278V124.4C129.278 125.136 129.128 125.787 128.83 126.352C128.542 126.917 128.131 127.355 127.598 127.664C127.064 127.973 126.446 128.128 125.742 128.128H124.014ZM133.972 117.568H130.42V116.8H138.404V117.568H134.852V128H133.972V117.568ZM143.141 128.128C142.426 128.128 141.791 127.968 141.237 127.648C140.693 127.317 140.271 126.859 139.973 126.272C139.674 125.675 139.525 124.992 139.525 124.224V120.576C139.525 119.797 139.674 119.115 139.973 118.528C140.282 117.941 140.709 117.488 141.253 117.168C141.807 116.837 142.442 116.672 143.157 116.672H144.821C145.535 116.672 146.165 116.837 146.709 117.168C147.263 117.488 147.69 117.941 147.989 118.528C148.287 119.115 148.437 119.797 148.437 120.576V124.224C148.437 124.992 148.282 125.675 147.973 126.272C147.674 126.859 147.247 127.317 146.693 127.648C146.149 127.968 145.519 128.128 144.805 128.128H143.141ZM144.789 127.328C145.61 127.328 146.277 127.045 146.789 126.48C147.301 125.904 147.557 125.152 147.557 124.224V120.576C147.557 119.637 147.301 118.885 146.789 118.32C146.287 117.744 145.626 117.456 144.805 117.456H143.173C142.341 117.456 141.669 117.744 141.157 118.32C140.655 118.885 140.405 119.637 140.405 120.576V124.224C140.405 125.152 140.655 125.904 141.157 126.48C141.669 127.045 142.335 127.328 143.157 127.328H144.789ZM150.876 116.8H151.74L158.204 126.608V116.8H159.052V128H158.204L151.724 118.224V128H150.876V116.8ZM165.845 116.8H166.725L170.837 124.48L174.837 116.8H175.701V128H174.837V118.448L171.269 125.264C171.194 125.403 171.125 125.499 171.061 125.552C171.007 125.605 170.943 125.632 170.869 125.632H170.597L166.709 118.448V128H165.845V116.8ZM179.27 128C179.014 128 178.811 127.925 178.662 127.776C178.523 127.627 178.454 127.419 178.454 127.152V116.8H185.67V117.568H179.334V121.888H185.19V122.656H179.334V127.216H185.67V128H179.27ZM188.755 128C188.499 128 188.296 127.931 188.147 127.792C188.008 127.643 187.939 127.44 187.939 127.184V116.8H192.371C193.139 116.8 193.816 116.949 194.403 117.248C194.989 117.547 195.443 117.968 195.763 118.512C196.083 119.056 196.243 119.68 196.243 120.384V124.08C196.243 125.371 195.917 126.347 195.267 127.008C194.627 127.669 193.683 128 192.435 128H188.755ZM192.419 127.2C193.389 127.2 194.12 126.939 194.611 126.416C195.112 125.883 195.363 125.104 195.363 124.08V120.384C195.363 119.541 195.085 118.864 194.531 118.352C193.987 117.84 193.261 117.584 192.355 117.584H188.819V127.2H192.419ZM198.77 116.8H199.65V128H198.77V116.8ZM205.716 128.128C205.033 128.128 204.425 127.963 203.892 127.632C203.369 127.301 202.964 126.837 202.676 126.24C202.388 125.632 202.243 124.933 202.243 124.144V120.64C202.243 119.851 202.388 119.157 202.676 118.56C202.974 117.963 203.39 117.499 203.924 117.168C204.468 116.837 205.086 116.672 205.78 116.672H207.476C208.137 116.672 208.724 116.816 209.236 117.104C209.748 117.392 210.142 117.797 210.42 118.32C210.697 118.832 210.836 119.424 210.836 120.096H209.988C209.988 119.307 209.758 118.672 209.3 118.192C208.841 117.701 208.233 117.456 207.476 117.456H205.78C204.99 117.456 204.35 117.749 203.86 118.336C203.369 118.923 203.124 119.691 203.124 120.64V124.144C203.124 125.104 203.358 125.877 203.828 126.464C204.308 127.04 204.937 127.328 205.716 127.328H207.444C208.222 127.328 208.846 127.067 209.316 126.544C209.785 126.011 210.02 125.307 210.02 124.432H210.868C210.868 125.168 210.724 125.819 210.436 126.384C210.158 126.939 209.758 127.371 209.236 127.68C208.724 127.979 208.126 128.128 207.444 128.128H205.716ZM218.96 124.736H213.92L212.688 128H211.776L216.048 116.8H216.464C216.72 116.8 216.912 116.965 217.04 117.296L221.088 128H220.176L218.96 124.736ZM214.192 123.984H218.688L216.448 117.984H216.432L214.192 123.984ZM223.63 128C223.374 128 223.171 127.931 223.022 127.792C222.883 127.643 222.814 127.435 222.814 127.168V116.8H223.694V127.2H229.774V128H223.63Z" fill="#7F7F7F"/>
<defs>
<linearGradient id="paint0_linear_1192_39" x1="513.067" y1="239.182" x2="513.873" y2="98.0523" gradientUnits="userSpaceOnUse">
<stop offset="0.045" stop-color="#F2F2F2"/>
<stop offset="1" stop-color="#B5B5B5"/>
</linearGradient>
</defs>
</svg>
