<svg width="72" height="61" viewBox="0 0 72 61" fill="none" xmlns="http://www.w3.org/2000/svg">
<path d="M17.5893 39.6H18.7993L24.4533 50.16L29.9533 39.6H31.1413V55H29.9533V41.866L25.0473 51.238C24.9446 51.4287 24.8493 51.5607 24.7613 51.634C24.6879 51.7073 24.5999 51.744 24.4973 51.744H24.1233L18.7773 41.866V55H17.5893V39.6ZM38.2712 55.176C37.1125 55.176 36.1738 54.824 35.4552 54.12C34.7512 53.416 34.3992 52.4847 34.3992 51.326V47.916C34.3992 46.6987 34.7512 45.716 35.4552 44.968C36.1738 44.22 37.1125 43.846 38.2712 43.846H40.0752C41.1898 43.846 42.0845 44.2127 42.7592 44.946C43.4485 45.6647 43.7932 46.6253 43.7932 47.828V49.676H35.5872V51.326C35.5872 52.162 35.8292 52.8367 36.3132 53.35C36.8118 53.8633 37.4645 54.12 38.2712 54.12H39.9432C40.7352 54.12 41.3732 53.8927 41.8572 53.438C42.3558 52.9687 42.6052 52.36 42.6052 51.612H43.7492C43.7492 52.6827 43.3972 53.548 42.6932 54.208C42.0038 54.8533 41.0872 55.176 39.9432 55.176H38.2712ZM42.6272 48.664V47.828C42.6272 46.948 42.3925 46.244 41.9232 45.716C41.4538 45.1733 40.8378 44.902 40.0752 44.902H38.2712C37.4645 44.902 36.8118 45.1807 36.3132 45.738C35.8292 46.2953 35.5872 47.0213 35.5872 47.916V48.664H42.6272ZM49.7314 55.176C48.6901 55.176 47.8468 54.8753 47.2014 54.274C46.5708 53.658 46.2554 52.8513 46.2554 51.854H47.3994C47.3994 52.5287 47.6121 53.0787 48.0374 53.504C48.4774 53.9293 49.0421 54.142 49.7314 54.142H51.6234C52.3421 54.142 52.9141 53.9953 53.3394 53.702C53.7794 53.4087 53.9994 53.0273 53.9994 52.558V51.7C53.9994 51.3773 53.8748 51.0913 53.6254 50.842C53.3908 50.5927 53.0828 50.4313 52.7014 50.358L48.8734 49.698C48.1548 49.5807 47.5754 49.3093 47.1354 48.884C46.7101 48.444 46.4974 47.9307 46.4974 47.344V46.596C46.4974 45.7747 46.7981 45.1147 47.3994 44.616C48.0154 44.1027 48.8221 43.846 49.8194 43.846H51.6894C52.6574 43.846 53.4348 44.1247 54.0214 44.682C54.6228 45.2393 54.9234 45.9727 54.9234 46.882H53.7794C53.7501 46.2807 53.5448 45.7967 53.1634 45.43C52.7968 45.0633 52.3054 44.88 51.6894 44.88H49.8194C49.1741 44.88 48.6534 45.0413 48.2574 45.364C47.8614 45.672 47.6634 46.0827 47.6634 46.596V47.3C47.6634 47.6373 47.7954 47.938 48.0594 48.202C48.3234 48.4513 48.6681 48.6053 49.0934 48.664L52.9214 49.324C53.5961 49.4413 54.1388 49.7127 54.5494 50.138C54.9601 50.5633 55.1654 51.0693 55.1654 51.656V52.58C55.1654 53.3573 54.8428 53.988 54.1974 54.472C53.5521 54.9413 52.6941 55.176 51.6234 55.176H49.7314Z" fill="black"/>
<path d="M20.5 0.5H34.5V10C34.5 11.933 32.933 13.5 31 13.5H20.5V0.5Z" stroke="black"/>
<path d="M37.5 0.5H51.5V13.5H41C39.067 13.5 37.5 11.933 37.5 10V0.5Z" stroke="black"/>
<path d="M20.5 16.5H31C32.933 16.5 34.5 18.067 34.5 20V29.5H20.5V16.5Z" stroke="black"/>
<path d="M37.5 20C37.5 18.067 39.067 16.5 41 16.5H51.5V29.5H37.5V20Z" stroke="black"/>
</svg>
