<svg width="87" height="22" viewBox="0 0 87 22" fill="none" xmlns="http://www.w3.org/2000/svg">
<path d="M1.376 4.8H2.256L6.368 12.48L10.368 4.8H11.232V16H10.368V6.448L6.8 13.264C6.72533 13.4027 6.656 13.4987 6.592 13.552C6.53867 13.6053 6.47467 13.632 6.4 13.632H6.128L2.24 6.448V16H1.376V4.8ZM16.4174 16.128C15.5747 16.128 14.892 15.872 14.3694 15.36C13.8574 14.848 13.6014 14.1707 13.6014 13.328V10.848C13.6014 9.96267 13.8574 9.248 14.3694 8.704C14.892 8.16 15.5747 7.888 16.4174 7.888H17.7294C18.54 7.888 19.1907 8.15467 19.6814 8.688C20.1827 9.21067 20.4334 9.90933 20.4334 10.784V12.128H14.4654V13.328C14.4654 13.936 14.6414 14.4267 14.9934 14.8C15.356 15.1733 15.8307 15.36 16.4174 15.36H17.6334C18.2094 15.36 18.6734 15.1947 19.0254 14.864C19.388 14.5227 19.5694 14.08 19.5694 13.536H20.4014C20.4014 14.3147 20.1454 14.944 19.6334 15.424C19.132 15.8933 18.4654 16.128 17.6334 16.128H16.4174ZM19.5854 11.392V10.784C19.5854 10.144 19.4147 9.632 19.0734 9.248C18.732 8.85333 18.284 8.656 17.7294 8.656H16.4174C15.8307 8.656 15.356 8.85867 14.9934 9.264C14.6414 9.66933 14.4654 10.1973 14.4654 10.848V11.392H19.5854ZM22.6401 8.016H23.4721V9.376C23.7388 8.91733 24.0748 8.55467 24.4801 8.288C24.8961 8.02133 25.3175 7.888 25.7441 7.888H26.8161C27.5095 7.888 28.0695 8.13333 28.4961 8.624C28.9335 9.104 29.1521 9.744 29.1521 10.544V16H28.3041V10.528C28.3041 9.97333 28.1655 9.52533 27.8881 9.184C27.6108 8.832 27.2481 8.656 26.8001 8.656H25.7601C25.2801 8.656 24.8268 8.85333 24.4001 9.248C23.9735 9.64267 23.6748 10.1547 23.5041 10.784V16H22.6401V8.016ZM33.943 16.128C33.2497 16.128 32.6843 15.8933 32.247 15.424C31.8097 14.944 31.591 14.3147 31.591 13.536V8.016H32.455V13.552C32.455 14.0853 32.5883 14.5227 32.855 14.864C33.1323 15.1947 33.495 15.36 33.943 15.36H34.935C35.2443 15.36 35.559 15.2587 35.879 15.056C36.199 14.8533 36.4817 14.5813 36.727 14.24C36.9723 13.888 37.1377 13.52 37.223 13.136V8.016H38.071V16H37.239V14.56C36.9723 15.0187 36.6257 15.3973 36.199 15.696C35.7723 15.984 35.3617 16.128 34.967 16.128H33.943Z" fill="black"/>
<rect width="28" height="1" rx="0.5" transform="matrix(1 0 0 -1 59 16)" fill="black"/>
<rect x="54" y="8" width="33" height="1" rx="0.5" fill="black"/>
</svg>
