<svg width="642" height="311" viewBox="0 0 642 311" fill="none" xmlns="http://www.w3.org/2000/svg">
<rect width="642" height="311" rx="18" fill="#F7F7F7"/>
<path d="M39.8656 43.6H56.9736C59.5389 43.6 61.6016 44.3107 63.1616 45.732C64.7216 47.1187 65.5016 48.9733 65.5016 51.296V57.068C65.5016 59.5987 64.6696 61.644 63.0056 63.204C61.3416 64.7293 59.1402 65.492 56.4016 65.492H42.7256V80H39.8656V43.6ZM56.3496 62.892C58.2562 62.892 59.7816 62.3547 60.9256 61.28C62.0696 60.2053 62.6416 58.784 62.6416 57.016V51.244C62.6416 49.7187 62.1042 48.488 61.0296 47.552C59.9896 46.616 58.6202 46.148 56.9216 46.148H42.7256V62.892H56.3496ZM79.5586 80.416C76.82 80.416 74.6013 79.584 72.9026 77.92C71.2386 76.256 70.4066 74.0547 70.4066 71.316V63.256C70.4066 60.3787 71.2386 58.056 72.9026 56.288C74.6013 54.52 76.82 53.636 79.5586 53.636H83.8226C86.4573 53.636 88.572 54.5027 90.1666 56.236C91.796 57.9347 92.6106 60.2053 92.6106 63.048V67.416H73.2146V71.316C73.2146 73.292 73.7866 74.8867 74.9306 76.1C76.1093 77.3133 77.652 77.92 79.5586 77.92H83.5106C85.3826 77.92 86.8906 77.3827 88.0346 76.308C89.2133 75.1987 89.8026 73.76 89.8026 71.992H92.5066C92.5066 74.5227 91.6746 76.568 90.0106 78.128C88.3813 79.6533 86.2146 80.416 83.5106 80.416H79.5586ZM89.8546 65.024V63.048C89.8546 60.968 89.3 59.304 88.1906 58.056C87.0813 56.7733 85.6253 56.132 83.8226 56.132H79.5586C77.652 56.132 76.1093 56.7907 74.9306 58.108C73.7866 59.4253 73.2146 61.1413 73.2146 63.256V65.024H89.8546ZM99.7826 54.052H102.487V58.264C103.249 56.9467 104.341 55.9067 105.763 55.144C107.184 54.3467 108.709 53.948 110.339 53.948H112.263V56.444H110.287C108.033 56.444 106.179 57.172 104.723 58.628C103.301 60.084 102.591 61.9733 102.591 64.296V80H99.7826V54.052ZM120.201 49.632C119.507 49.632 118.935 49.424 118.485 49.008C118.069 48.592 117.861 48.0373 117.861 47.344C117.861 46.6507 118.069 46.096 118.485 45.68C118.935 45.2293 119.507 45.004 120.201 45.004C120.894 45.004 121.449 45.2293 121.865 45.68C122.281 46.096 122.489 46.6507 122.489 47.344C122.489 48.0027 122.281 48.5573 121.865 49.008C121.449 49.424 120.894 49.632 120.201 49.632ZM118.797 54.052H121.553V80H118.797V54.052ZM133.613 56.548H129.141V54.052H133.613V51.868C133.613 46.2173 136.317 43.392 141.725 43.392H143.181V45.836H141.725C139.853 45.836 138.501 46.3213 137.669 47.292C136.837 48.228 136.421 49.7533 136.421 51.868V54.052H142.609V56.548H136.421V80H133.613V56.548ZM156.035 80.416C153.297 80.416 151.078 79.584 149.379 77.92C147.715 76.256 146.883 74.0547 146.883 71.316V63.256C146.883 60.3787 147.715 58.056 149.379 56.288C151.078 54.52 153.297 53.636 156.035 53.636H160.299C162.934 53.636 165.049 54.5027 166.643 56.236C168.273 57.9347 169.087 60.2053 169.087 63.048V67.416H149.691V71.316C149.691 73.292 150.263 74.8867 151.407 76.1C152.586 77.3133 154.129 77.92 156.035 77.92H159.987C161.859 77.92 163.367 77.3827 164.511 76.308C165.69 75.1987 166.279 73.76 166.279 71.992H168.983C168.983 74.5227 168.151 76.568 166.487 78.128C164.858 79.6533 162.691 80.416 159.987 80.416H156.035ZM166.331 65.024V63.048C166.331 60.968 165.777 59.304 164.667 58.056C163.558 56.7733 162.102 56.132 160.299 56.132H156.035C154.129 56.132 152.586 56.7907 151.407 58.108C150.263 59.4253 149.691 61.1413 149.691 63.256V65.024H166.331ZM160.923 42.092H164.147L159.259 49.58H156.555L160.923 42.092ZM176.259 54.052H178.963V58.264C179.726 56.9467 180.818 55.9067 182.239 55.144C183.66 54.3467 185.186 53.948 186.815 53.948H188.739V56.444H186.763C184.51 56.444 182.655 57.172 181.199 58.628C179.778 60.084 179.067 61.9733 179.067 64.296V80H176.259V54.052ZM196.677 49.632C195.984 49.632 195.412 49.424 194.961 49.008C194.545 48.592 194.337 48.0373 194.337 47.344C194.337 46.6507 194.545 46.096 194.961 45.68C195.412 45.2293 195.984 45.004 196.677 45.004C197.371 45.004 197.925 45.2293 198.341 45.68C198.757 46.096 198.965 46.6507 198.965 47.344C198.965 48.0027 198.757 48.5573 198.341 49.008C197.925 49.424 197.371 49.632 196.677 49.632ZM195.273 54.052H198.029V80H195.273V54.052ZM215.446 80.416C212.742 80.416 210.558 79.584 208.894 77.92C207.264 76.2213 206.45 74.0027 206.45 71.264V63.256C206.45 60.3787 207.264 58.056 208.894 56.288C210.558 54.52 212.724 53.636 215.394 53.636H219.658C222.188 53.636 224.216 54.3293 225.742 55.716C227.302 57.1027 228.082 58.9227 228.082 61.176H225.378C225.378 59.6507 224.84 58.4373 223.766 57.536C222.726 56.6 221.356 56.132 219.658 56.132H215.394C213.556 56.132 212.066 56.7907 210.922 58.108C209.812 59.3907 209.258 61.1067 209.258 63.256V71.264C209.258 73.2747 209.812 74.8867 210.922 76.1C212.066 77.3133 213.574 77.92 215.446 77.92H219.71C221.443 77.92 222.847 77.3133 223.922 76.1C224.996 74.8867 225.534 73.292 225.534 71.316H228.238C228.238 74.0547 227.458 76.256 225.898 77.92C224.338 79.584 222.275 80.416 219.71 80.416H215.446ZM243.229 80.416C240.456 80.416 238.22 79.5493 236.521 77.816C234.822 76.048 233.973 73.7427 233.973 70.9V63.152C233.973 60.3093 234.822 58.0213 236.521 56.288C238.254 54.52 240.525 53.636 243.333 53.636H247.441C250.249 53.636 252.502 54.52 254.201 56.288C255.934 58.0213 256.801 60.3093 256.801 63.152V70.9C256.801 73.7427 255.934 76.048 254.201 77.816C252.468 79.5493 250.18 80.416 247.337 80.416H243.229ZM247.337 77.92C249.348 77.92 250.96 77.2787 252.173 75.996C253.421 74.7133 254.045 73.0147 254.045 70.9V63.152C254.045 61.0373 253.438 59.3387 252.225 58.056C251.012 56.7733 249.417 56.132 247.441 56.132H243.333C241.357 56.132 239.762 56.7733 238.549 58.056C237.37 59.3387 236.781 61.0373 236.781 63.152V70.9C236.781 73.0147 237.37 74.7133 238.549 75.996C239.728 77.2787 241.288 77.92 243.229 77.92H247.337Z" fill="#2C2C2C"/>
<path d="M468.291 274.6C460.691 274.6 453.891 272.8 447.891 269.2C442.025 265.6 437.425 260.6 434.091 254.2C430.891 247.667 429.291 240.133 429.291 231.6V174.4C429.291 165.867 430.891 158.4 434.091 152C437.425 145.467 442.025 140.4 447.891 136.8C453.891 133.2 460.691 131.4 468.291 131.4H489.491C497.225 131.4 504.025 133.2 509.891 136.8C515.758 140.4 520.291 145.467 523.491 152C526.691 158.4 528.291 165.867 528.291 174.4V231.6C528.291 240.133 526.691 247.667 523.491 254.2C520.291 260.6 515.758 265.6 509.891 269.2C504.025 272.8 497.225 274.6 489.491 274.6H468.291ZM489.091 264.6C497.625 264.6 504.425 261.6 509.491 255.6C514.691 249.467 517.291 241.467 517.291 231.6V174.4C517.291 164.4 514.691 156.4 509.491 150.4C504.425 144.267 497.625 141.2 489.091 141.2H468.691C460.158 141.2 453.291 144.267 448.091 150.4C442.891 156.4 440.291 164.4 440.291 174.4V231.6C440.291 241.467 442.891 249.467 448.091 255.6C453.291 261.6 460.158 264.6 468.691 264.6H489.091ZM583.226 144.6L551.026 161V150.4L583.826 133H594.226V273H583.226V144.6Z" fill="url(#paint0_linear_1192_36)"/>
<path d="M51.3322 120.784C50.9589 120.784 50.6549 120.672 50.4202 120.448C50.1855 120.213 50.0682 119.909 50.0682 119.536C50.0682 119.163 50.1855 118.859 50.4202 118.624C50.6549 118.389 50.9589 118.272 51.3322 118.272C51.7055 118.272 52.0042 118.389 52.2282 118.624C52.4629 118.859 52.5802 119.163 52.5802 119.536C52.5802 119.909 52.4629 120.213 52.2282 120.448C52.0042 120.672 51.7055 120.784 51.3322 120.784ZM65.5182 124C65.2729 124 65.0755 123.925 64.9262 123.776C64.7769 123.627 64.7022 123.429 64.7022 123.184V112.8H69.3582C70.2435 112.8 70.9529 113.019 71.4862 113.456C72.0302 113.893 72.3022 114.469 72.3022 115.184V116.096C72.3022 116.533 72.2062 116.939 72.0142 117.312C71.8222 117.675 71.5662 117.957 71.2462 118.16V118.176C71.7795 118.304 72.2062 118.571 72.5262 118.976C72.8462 119.371 73.0062 119.835 73.0062 120.368V121.232C73.0062 122.064 72.7342 122.736 72.1902 123.248C71.6462 123.749 70.9209 124 70.0142 124H65.5182ZM69.6782 117.968C70.2009 117.968 70.6222 117.797 70.9422 117.456C71.2622 117.115 71.4222 116.661 71.4222 116.096V115.184C71.4222 114.715 71.2302 114.331 70.8462 114.032C70.4729 113.733 69.9769 113.584 69.3582 113.584H65.5822V117.968H69.6782ZM69.9342 123.2C70.5955 123.2 71.1235 123.024 71.5182 122.672C71.9235 122.309 72.1262 121.829 72.1262 121.232V120.368C72.1262 119.877 71.9502 119.483 71.5982 119.184C71.2569 118.875 70.8035 118.72 70.2382 118.72H65.5822V123.2H69.9342ZM76.0026 124C75.7466 124 75.5439 123.925 75.3946 123.776C75.2559 123.627 75.1866 123.419 75.1866 123.152V112.8H82.4026V113.568H76.0666V117.888H81.9226V118.656H76.0666V123.216H82.4026V124H76.0026ZM84.6709 112.8H85.5349L91.9989 122.608V112.8H92.8469V124H91.9989L85.5189 114.224V124H84.6709V112.8ZM98.3448 113.568H94.7928V112.8H102.777V113.568H99.2248V124H98.3448V113.568ZM105.549 124C105.293 124 105.091 123.931 104.941 123.792C104.803 123.643 104.733 123.435 104.733 123.168V112.8H105.613V123.2H111.693V124H105.549ZM114.393 124C114.137 124 113.935 123.925 113.785 123.776C113.647 123.627 113.577 123.419 113.577 123.152V112.8H120.793V113.568H114.457V117.888H120.313V118.656H114.457V123.216H120.793V124H114.393ZM126.166 119.712L122.038 112.8H122.998L126.598 118.912L130.214 112.8H131.158L127.046 119.712V124H126.166V119.712ZM51.3322 143.784C50.9589 143.784 50.6549 143.672 50.4202 143.448C50.1855 143.213 50.0682 142.909 50.0682 142.536C50.0682 142.163 50.1855 141.859 50.4202 141.624C50.6549 141.389 50.9589 141.272 51.3322 141.272C51.7055 141.272 52.0042 141.389 52.2282 141.624C52.4629 141.859 52.5802 142.163 52.5802 142.536C52.5802 142.909 52.4629 143.213 52.2282 143.448C52.0042 143.672 51.7055 143.784 51.3322 143.784ZM67.4222 147.128C66.4729 147.128 65.7155 146.845 65.1502 146.28C64.5955 145.715 64.3182 144.947 64.3182 143.976H65.1822C65.1822 144.701 65.3849 145.277 65.7902 145.704C66.1955 146.12 66.7449 146.328 67.4382 146.328H69.2302C69.9022 146.328 70.4409 146.173 70.8462 145.864C71.2622 145.555 71.4702 145.149 71.4702 144.648V143.56C71.4702 143.155 71.3209 142.808 71.0222 142.52C70.7235 142.232 70.3075 142.045 69.7742 141.96L66.9102 141.48C66.1422 141.352 65.5395 141.075 65.1022 140.648C64.6755 140.221 64.4622 139.688 64.4622 139.048V138.12C64.4622 137.384 64.7395 136.792 65.2942 136.344C65.8489 135.896 66.5795 135.672 67.4862 135.672H69.2942C70.1582 135.672 70.8515 135.933 71.3742 136.456C71.9075 136.979 72.1742 137.667 72.1742 138.52H71.3102C71.3102 137.901 71.1235 137.405 70.7502 137.032C70.3875 136.648 69.9022 136.456 69.2942 136.456H67.4862C66.8355 136.456 66.3129 136.611 65.9182 136.92C65.5342 137.219 65.3422 137.619 65.3422 138.12V139.048C65.3422 139.475 65.4862 139.832 65.7742 140.12C66.0622 140.408 66.4675 140.595 66.9902 140.68L69.8382 141.176C70.6275 141.315 71.2409 141.592 71.6782 142.008C72.1262 142.424 72.3502 142.941 72.3502 143.56V144.648C72.3502 145.395 72.0675 145.997 71.5022 146.456C70.9369 146.904 70.1849 147.128 69.2462 147.128H67.4222ZM77.7761 147.128C77.0934 147.128 76.4854 146.963 75.9521 146.632C75.4294 146.301 75.0241 145.837 74.7361 145.24C74.4481 144.632 74.3041 143.933 74.3041 143.144V139.64C74.3041 138.851 74.4481 138.157 74.7361 137.56C75.0347 136.963 75.4507 136.499 75.9841 136.168C76.5281 135.837 77.1467 135.672 77.8401 135.672H79.5361C80.1974 135.672 80.7841 135.816 81.2961 136.104C81.8081 136.392 82.2027 136.797 82.4801 137.32C82.7574 137.832 82.8961 138.424 82.8961 139.096H82.0481C82.0481 138.307 81.8187 137.672 81.3601 137.192C80.9014 136.701 80.2934 136.456 79.5361 136.456H77.8401C77.0507 136.456 76.4107 136.749 75.9201 137.336C75.4294 137.923 75.1841 138.691 75.1841 139.64V143.144C75.1841 144.104 75.4187 144.877 75.8881 145.464C76.3681 146.04 76.9974 146.328 77.7761 146.328H79.5041C80.2827 146.328 80.9067 146.067 81.3761 145.544C81.8454 145.011 82.0801 144.307 82.0801 143.432H82.9281C82.9281 144.168 82.7841 144.819 82.4961 145.384C82.2187 145.939 81.8187 146.371 81.2961 146.68C80.7841 146.979 80.1867 147.128 79.5041 147.128H77.7761ZM85.2372 135.8H86.1172V147H85.2372V135.8ZM91.7823 136.568H88.2303V135.8H96.2143V136.568H92.6623V147H91.7823V136.568ZM98.9869 147C98.7309 147 98.5283 146.925 98.3789 146.776C98.2403 146.627 98.1709 146.419 98.1709 146.152V135.8H105.387V136.568H99.0509V140.888H104.907V141.656H99.0509V146.216H105.387V147H98.9869ZM110.714 147.128C110.031 147.128 109.423 146.963 108.89 146.632C108.367 146.301 107.962 145.837 107.674 145.24C107.386 144.632 107.242 143.933 107.242 143.144V139.64C107.242 138.851 107.386 138.157 107.674 137.56C107.972 136.963 108.388 136.499 108.922 136.168C109.466 135.837 110.084 135.672 110.778 135.672H112.474C113.135 135.672 113.722 135.816 114.234 136.104C114.746 136.392 115.14 136.797 115.418 137.32C115.695 137.832 115.834 138.424 115.834 139.096H114.986C114.986 138.307 114.756 137.672 114.298 137.192C113.839 136.701 113.231 136.456 112.474 136.456H110.778C109.988 136.456 109.348 136.749 108.858 137.336C108.367 137.923 108.122 138.691 108.122 139.64V143.144C108.122 144.104 108.356 144.877 108.826 145.464C109.306 146.04 109.935 146.328 110.714 146.328H112.442C113.22 146.328 113.844 146.067 114.314 145.544C114.783 145.011 115.018 144.307 115.018 143.432H115.866C115.866 144.168 115.722 144.819 115.434 145.384C115.156 145.939 114.756 146.371 114.234 146.68C113.722 146.979 113.124 147.128 112.442 147.128H110.714ZM118.015 135.8H118.895V140.952H125.359V135.8H126.239V147H125.359V141.736H118.895V147H118.015V135.8ZM51.3322 166.784C50.9589 166.784 50.6549 166.672 50.4202 166.448C50.1855 166.213 50.0682 165.909 50.0682 165.536C50.0682 165.163 50.1855 164.859 50.4202 164.624C50.6549 164.389 50.9589 164.272 51.3322 164.272C51.7055 164.272 52.0042 164.389 52.2282 164.624C52.4629 164.859 52.5802 165.163 52.5802 165.536C52.5802 165.909 52.4629 166.213 52.2282 166.448C52.0042 166.672 51.7055 166.784 51.3322 166.784ZM70.9582 166.736H65.9182L64.6862 170H63.7742L68.0462 158.8H68.4622C68.7182 158.8 68.9102 158.965 69.0382 159.296L73.0862 170H72.1742L70.9582 166.736ZM66.1902 165.984H70.6862L68.4462 159.984H68.4302L66.1902 165.984ZM77.3441 170.128C76.3947 170.128 75.6374 169.845 75.0721 169.28C74.5174 168.715 74.2401 167.947 74.2401 166.976H75.1041C75.1041 167.701 75.3067 168.277 75.7121 168.704C76.1174 169.12 76.6667 169.328 77.3601 169.328H79.1521C79.8241 169.328 80.3627 169.173 80.7681 168.864C81.1841 168.555 81.3921 168.149 81.3921 167.648V166.56C81.3921 166.155 81.2427 165.808 80.9441 165.52C80.6454 165.232 80.2294 165.045 79.6961 164.96L76.8321 164.48C76.0641 164.352 75.4614 164.075 75.0241 163.648C74.5974 163.221 74.3841 162.688 74.3841 162.048V161.12C74.3841 160.384 74.6614 159.792 75.2161 159.344C75.7707 158.896 76.5014 158.672 77.4081 158.672H79.2161C80.0801 158.672 80.7734 158.933 81.2961 159.456C81.8294 159.979 82.0961 160.667 82.0961 161.52H81.2321C81.2321 160.901 81.0454 160.405 80.6721 160.032C80.3094 159.648 79.8241 159.456 79.2161 159.456H77.4081C76.7574 159.456 76.2347 159.611 75.8401 159.92C75.4561 160.219 75.2641 160.619 75.2641 161.12V162.048C75.2641 162.475 75.4081 162.832 75.6961 163.12C75.9841 163.408 76.3894 163.595 76.9121 163.68L79.7601 164.176C80.5494 164.315 81.1627 164.592 81.6001 165.008C82.0481 165.424 82.2721 165.941 82.2721 166.56V167.648C82.2721 168.395 81.9894 168.997 81.4241 169.456C80.8587 169.904 80.1067 170.128 79.1681 170.128H77.3441ZM90.5207 166.736H85.4807L84.2487 170H83.3367L87.6087 158.8H88.0247C88.2807 158.8 88.4727 158.965 88.6007 159.296L92.6487 170H91.7367L90.5207 166.736ZM85.7527 165.984H90.2487L88.0087 159.984H87.9927L85.7527 165.984ZM94.4678 158.8H95.3478V163.952H101.812V158.8H102.692V170H101.812V164.736H95.3478V170H94.4678V158.8ZM105.597 158.8H106.477V170H105.597V158.8ZM113.597 158.8H114.477V170H113.597V158.8ZM117.39 158.8H118.254L124.718 168.608V158.8H125.566V170H124.718L118.238 160.224V170H117.39V158.8ZM131.064 159.568H127.512V158.8H135.496V159.568H131.944V170H131.064V159.568ZM138.268 170C138.012 170 137.81 169.925 137.66 169.776C137.522 169.627 137.452 169.419 137.452 169.152V158.8H144.668V159.568H138.332V163.888H144.188V164.656H138.332V169.216H144.668V170H138.268ZM149.995 170.128C149.312 170.128 148.704 169.963 148.171 169.632C147.648 169.301 147.243 168.837 146.955 168.24C146.667 167.632 146.523 166.933 146.523 166.144V162.64C146.523 161.851 146.667 161.157 146.955 160.56C147.253 159.963 147.669 159.499 148.203 159.168C148.747 158.837 149.365 158.672 150.059 158.672H151.755C152.416 158.672 153.003 158.816 153.515 159.104C154.027 159.392 154.421 159.797 154.699 160.32C154.976 160.832 155.115 161.424 155.115 162.096H154.267C154.267 161.307 154.037 160.672 153.579 160.192C153.12 159.701 152.512 159.456 151.755 159.456H150.059C149.269 159.456 148.629 159.749 148.139 160.336C147.648 160.923 147.403 161.691 147.403 162.64V166.144C147.403 167.104 147.637 167.877 148.107 168.464C148.587 169.04 149.216 169.328 149.995 169.328H151.723C152.501 169.328 153.125 169.067 153.595 168.544C154.064 168.011 154.299 167.307 154.299 166.432H155.147C155.147 167.168 155.003 167.819 154.715 168.384C154.437 168.939 154.037 169.371 153.515 169.68C153.003 169.979 152.405 170.128 151.723 170.128H149.995ZM160.448 170.128C159.765 170.128 159.157 169.963 158.624 169.632C158.101 169.301 157.696 168.837 157.408 168.24C157.12 167.632 156.976 166.933 156.976 166.144V162.64C156.976 161.851 157.12 161.157 157.408 160.56C157.707 159.963 158.123 159.499 158.656 159.168C159.2 158.837 159.819 158.672 160.512 158.672H162.208C162.869 158.672 163.456 158.816 163.968 159.104C164.48 159.392 164.875 159.797 165.152 160.32C165.429 160.832 165.568 161.424 165.568 162.096H164.72C164.72 161.307 164.491 160.672 164.032 160.192C163.573 159.701 162.965 159.456 162.208 159.456H160.512C159.723 159.456 159.083 159.749 158.592 160.336C158.101 160.923 157.856 161.691 157.856 162.64V166.144C157.856 167.104 158.091 167.877 158.56 168.464C159.04 169.04 159.669 169.328 160.448 169.328H162.176C162.955 169.328 163.579 169.067 164.048 168.544C164.517 168.011 164.752 167.307 164.752 166.432H165.6C165.6 167.168 165.456 167.819 165.168 168.384C164.891 168.939 164.491 169.371 163.968 169.68C163.456 169.979 162.859 170.128 162.176 170.128H160.448ZM51.3322 189.784C50.9589 189.784 50.6549 189.672 50.4202 189.448C50.1855 189.213 50.0682 188.909 50.0682 188.536C50.0682 188.163 50.1855 187.859 50.4202 187.624C50.6549 187.389 50.9589 187.272 51.3322 187.272C51.7055 187.272 52.0042 187.389 52.2282 187.624C52.4629 187.859 52.5802 188.163 52.5802 188.536C52.5802 188.909 52.4629 189.213 52.2282 189.448C52.0042 189.672 51.7055 189.784 51.3322 189.784ZM67.4222 193.128C66.4729 193.128 65.7155 192.845 65.1502 192.28C64.5955 191.715 64.3182 190.947 64.3182 189.976H65.1822C65.1822 190.701 65.3849 191.277 65.7902 191.704C66.1955 192.12 66.7449 192.328 67.4382 192.328H69.2302C69.9022 192.328 70.4409 192.173 70.8462 191.864C71.2622 191.555 71.4702 191.149 71.4702 190.648V189.56C71.4702 189.155 71.3209 188.808 71.0222 188.52C70.7235 188.232 70.3075 188.045 69.7742 187.96L66.9102 187.48C66.1422 187.352 65.5395 187.075 65.1022 186.648C64.6755 186.221 64.4622 185.688 64.4622 185.048V184.12C64.4622 183.384 64.7395 182.792 65.2942 182.344C65.8489 181.896 66.5795 181.672 67.4862 181.672H69.2942C70.1582 181.672 70.8515 181.933 71.3742 182.456C71.9075 182.979 72.1742 183.667 72.1742 184.52H71.3102C71.3102 183.901 71.1235 183.405 70.7502 183.032C70.3875 182.648 69.9022 182.456 69.2942 182.456H67.4862C66.8355 182.456 66.3129 182.611 65.9182 182.92C65.5342 183.219 65.3422 183.619 65.3422 184.12V185.048C65.3422 185.475 65.4862 185.832 65.7742 186.12C66.0622 186.408 66.4675 186.595 66.9902 186.68L69.8382 187.176C70.6275 187.315 71.2409 187.592 71.6782 188.008C72.1262 188.424 72.3502 188.941 72.3502 189.56V190.648C72.3502 191.395 72.0675 191.997 71.5022 192.456C70.9369 192.904 70.1849 193.128 69.2462 193.128H67.4222ZM74.6241 181.8H75.5041V186.952H81.9681V181.8H82.8481V193H81.9681V187.736H75.5041V193H74.6241V181.8ZM91.8488 189.736H86.8088L85.5768 193H84.6648L88.9368 181.8H89.3528C89.6088 181.8 89.8008 181.965 89.9288 182.296L93.9768 193H93.0648L91.8488 189.736ZM87.0808 188.984H91.5768L89.3368 182.984H89.3208L87.0808 188.984ZM95.7959 181.8H101.06C101.849 181.8 102.484 182.019 102.964 182.456C103.444 182.883 103.684 183.453 103.684 184.168V185.944C103.684 186.723 103.428 187.352 102.916 187.832C102.404 188.301 101.727 188.536 100.884 188.536H96.6759V193H95.7959V181.8ZM100.868 187.736C101.455 187.736 101.924 187.571 102.276 187.24C102.628 186.909 102.804 186.472 102.804 185.928V184.152C102.804 183.683 102.639 183.304 102.308 183.016C101.988 182.728 101.567 182.584 101.044 182.584H96.6759V187.736H100.868ZM106.487 193C106.231 193 106.028 192.925 105.879 192.776C105.74 192.627 105.671 192.419 105.671 192.152V181.8H112.887V182.568H106.551V186.888H112.407V187.656H106.551V192.216H112.887V193H106.487ZM119.202 181.8H120.082L124.194 189.48L128.194 181.8H129.058V193H128.194V183.448L124.626 190.264C124.552 190.403 124.482 190.499 124.418 190.552C124.365 190.605 124.301 190.632 124.226 190.632H123.954L120.066 183.448V193H119.202V181.8ZM132.628 193C132.372 193 132.169 192.925 132.02 192.776C131.881 192.627 131.812 192.419 131.812 192.152V181.8H139.028V182.568H132.692V186.888H138.548V187.656H132.692V192.216H139.028V193H132.628ZM141.296 181.8H142.176L146.288 189.48L150.288 181.8H151.152V193H150.288V183.448L146.72 190.264C146.645 190.403 146.576 190.499 146.512 190.552C146.459 190.605 146.395 190.632 146.32 190.632H146.048L142.16 183.448V193H141.296V181.8ZM157.201 193.128C156.487 193.128 155.852 192.968 155.297 192.648C154.753 192.317 154.332 191.859 154.033 191.272C153.735 190.675 153.585 189.992 153.585 189.224V185.576C153.585 184.797 153.735 184.115 154.033 183.528C154.343 182.941 154.769 182.488 155.313 182.168C155.868 181.837 156.503 181.672 157.217 181.672H158.881C159.596 181.672 160.225 181.837 160.769 182.168C161.324 182.488 161.751 182.941 162.049 183.528C162.348 184.115 162.497 184.797 162.497 185.576V189.224C162.497 189.992 162.343 190.675 162.033 191.272C161.735 191.859 161.308 192.317 160.753 192.648C160.209 192.968 159.58 193.128 158.865 193.128H157.201ZM158.849 192.328C159.671 192.328 160.337 192.045 160.849 191.48C161.361 190.904 161.617 190.152 161.617 189.224V185.576C161.617 184.637 161.361 183.885 160.849 183.32C160.348 182.744 159.687 182.456 158.865 182.456H157.233C156.401 182.456 155.729 182.744 155.217 183.32C154.716 183.885 154.465 184.637 154.465 185.576V189.224C154.465 190.152 154.716 190.904 155.217 191.48C155.729 192.045 156.396 192.328 157.217 192.328H158.849ZM164.937 181.8H170.217C170.995 181.8 171.619 182.019 172.089 182.456C172.558 182.883 172.793 183.453 172.793 184.168V185.416C172.793 185.981 172.611 186.483 172.249 186.92C171.886 187.347 171.401 187.64 170.793 187.8V187.816C171.113 187.976 171.401 188.237 171.657 188.6C171.913 188.963 172.11 189.389 172.249 189.88L173.145 193H172.249L171.353 189.88C171.182 189.315 170.91 188.867 170.537 188.536C170.174 188.205 169.758 188.04 169.289 188.04H165.817V193H164.937V181.8ZM169.817 187.256C170.446 187.256 170.953 187.091 171.337 186.76C171.721 186.419 171.913 185.971 171.913 185.416V184.136C171.913 183.667 171.758 183.293 171.449 183.016C171.139 182.728 170.723 182.584 170.201 182.584H165.817V187.256H169.817ZM178.166 188.712L174.038 181.8H174.998L178.598 187.912L182.214 181.8H183.158L179.046 188.712V193H178.166V188.712ZM51.3322 212.784C50.9589 212.784 50.6549 212.672 50.4202 212.448C50.1855 212.213 50.0682 211.909 50.0682 211.536C50.0682 211.163 50.1855 210.859 50.4202 210.624C50.6549 210.389 50.9589 210.272 51.3322 210.272C51.7055 210.272 52.0042 210.389 52.2282 210.624C52.4629 210.859 52.5802 211.163 52.5802 211.536C52.5802 211.909 52.4629 212.213 52.2282 212.448C52.0042 212.672 51.7055 212.784 51.3322 212.784ZM70.9582 212.736H65.9182L64.6862 216H63.7742L68.0462 204.8H68.4622C68.7182 204.8 68.9102 204.965 69.0382 205.296L73.0862 216H72.1742L70.9582 212.736ZM66.1902 211.984H70.6862L68.4462 205.984H68.4302L66.1902 211.984ZM74.9053 204.8H75.7693L82.2333 214.608V204.8H83.0813V216H82.2333L75.7533 206.224V216H74.9053V204.8ZM86.6432 216C86.3872 216 86.1845 215.931 86.0352 215.792C85.8965 215.643 85.8272 215.44 85.8272 215.184V204.8H90.2592C91.0272 204.8 91.7045 204.949 92.2912 205.248C92.8779 205.547 93.3312 205.968 93.6512 206.512C93.9712 207.056 94.1312 207.68 94.1312 208.384V212.08C94.1312 213.371 93.8059 214.347 93.1552 215.008C92.5152 215.669 91.5712 216 90.3232 216H86.6432ZM90.3072 215.2C91.2779 215.2 92.0085 214.939 92.4992 214.416C93.0005 213.883 93.2512 213.104 93.2512 212.08V208.384C93.2512 207.541 92.9739 206.864 92.4192 206.352C91.8752 205.84 91.1499 205.584 90.2432 205.584H86.7072V215.2H90.3072ZM96.4991 204.8H101.779C102.558 204.8 103.182 205.019 103.651 205.456C104.12 205.883 104.355 206.453 104.355 207.168V208.416C104.355 208.981 104.174 209.483 103.811 209.92C103.448 210.347 102.963 210.64 102.355 210.8V210.816C102.675 210.976 102.963 211.237 103.219 211.6C103.475 211.963 103.672 212.389 103.811 212.88L104.707 216H103.811L102.915 212.88C102.744 212.315 102.472 211.867 102.099 211.536C101.736 211.205 101.32 211.04 100.851 211.04H97.3791V216H96.4991V204.8ZM101.379 210.256C102.008 210.256 102.515 210.091 102.899 209.76C103.283 209.419 103.475 208.971 103.475 208.416V207.136C103.475 206.667 103.32 206.293 103.011 206.016C102.702 205.728 102.286 205.584 101.763 205.584H97.3791V210.256H101.379ZM113.036 212.736H107.996L106.764 216H105.852L110.124 204.8H110.54C110.796 204.8 110.988 204.965 111.116 205.296L115.164 216H114.252L113.036 212.736ZM108.268 211.984H112.764L110.524 205.984H110.508L108.268 211.984ZM118.142 205.568H114.59V204.8H122.574V205.568H119.022V216H118.142V205.568ZM125.346 216C125.09 216 124.888 215.925 124.738 215.776C124.6 215.627 124.53 215.419 124.53 215.152V204.8H131.746V205.568H125.41V209.888H131.266V210.656H125.41V215.216H131.746V216H125.346ZM137.073 216.128C136.39 216.128 135.782 215.963 135.249 215.632C134.726 215.301 134.321 214.837 134.033 214.24C133.745 213.632 133.601 212.933 133.601 212.144V208.64C133.601 207.851 133.745 207.157 134.033 206.56C134.332 205.963 134.748 205.499 135.281 205.168C135.825 204.837 136.444 204.672 137.137 204.672H138.833C139.494 204.672 140.081 204.816 140.593 205.104C141.105 205.392 141.5 205.797 141.777 206.32C142.054 206.832 142.193 207.424 142.193 208.096H141.345C141.345 207.307 141.116 206.672 140.657 206.192C140.198 205.701 139.59 205.456 138.833 205.456H137.137C136.348 205.456 135.708 205.749 135.217 206.336C134.726 206.923 134.481 207.691 134.481 208.64V212.144C134.481 213.104 134.716 213.877 135.185 214.464C135.665 215.04 136.294 215.328 137.073 215.328H138.801C139.58 215.328 140.204 215.067 140.673 214.544C141.142 214.011 141.377 213.307 141.377 212.432H142.225C142.225 213.168 142.081 213.819 141.793 214.384C141.516 214.939 141.116 215.371 140.593 215.68C140.081 215.979 139.484 216.128 138.801 216.128H137.073ZM51.3322 235.784C50.9589 235.784 50.6549 235.672 50.4202 235.448C50.1855 235.213 50.0682 234.909 50.0682 234.536C50.0682 234.163 50.1855 233.859 50.4202 233.624C50.6549 233.389 50.9589 233.272 51.3322 233.272C51.7055 233.272 52.0042 233.389 52.2282 233.624C52.4629 233.859 52.5802 234.163 52.5802 234.536C52.5802 234.909 52.4629 235.213 52.2282 235.448C52.0042 235.672 51.7055 235.784 51.3322 235.784ZM64.7022 227.8H65.5822L69.6942 235.48L73.6942 227.8H74.5582V239H73.6942V229.448L70.1262 236.264C70.0515 236.403 69.9822 236.499 69.9182 236.552C69.8649 236.605 69.8009 236.632 69.7262 236.632H69.4542L65.5662 229.448V239H64.7022V227.8ZM80.0316 239.128C79.0822 239.128 78.3249 238.845 77.7596 238.28C77.2049 237.715 76.9276 236.947 76.9276 235.976H77.7916C77.7916 236.701 77.9942 237.277 78.3996 237.704C78.8049 238.12 79.3542 238.328 80.0476 238.328H81.8396C82.5116 238.328 83.0502 238.173 83.4556 237.864C83.8716 237.555 84.0796 237.149 84.0796 236.648V235.56C84.0796 235.155 83.9302 234.808 83.6316 234.52C83.3329 234.232 82.9169 234.045 82.3836 233.96L79.5196 233.48C78.7516 233.352 78.1489 233.075 77.7116 232.648C77.2849 232.221 77.0716 231.688 77.0716 231.048V230.12C77.0716 229.384 77.3489 228.792 77.9036 228.344C78.4582 227.896 79.1889 227.672 80.0956 227.672H81.9036C82.7676 227.672 83.4609 227.933 83.9836 228.456C84.5169 228.979 84.7836 229.667 84.7836 230.52H83.9196C83.9196 229.901 83.7329 229.405 83.3596 229.032C82.9969 228.648 82.5116 228.456 81.9036 228.456H80.0956C79.4449 228.456 78.9222 228.611 78.5276 228.92C78.1436 229.219 77.9516 229.619 77.9516 230.12V231.048C77.9516 231.475 78.0956 231.832 78.3836 232.12C78.6716 232.408 79.0769 232.595 79.5996 232.68L82.4476 233.176C83.2369 233.315 83.8502 233.592 84.2876 234.008C84.7356 234.424 84.9596 234.941 84.9596 235.56V236.648C84.9596 237.395 84.6769 237.997 84.1116 238.456C83.5462 238.904 82.7942 239.128 81.8556 239.128H80.0316ZM88.0494 239C87.8041 239 87.6068 238.925 87.4574 238.776C87.3081 238.627 87.2334 238.429 87.2334 238.184V227.8H91.8894C92.7748 227.8 93.4841 228.019 94.0174 228.456C94.5614 228.893 94.8334 229.469 94.8334 230.184V231.096C94.8334 231.533 94.7374 231.939 94.5454 232.312C94.3534 232.675 94.0974 232.957 93.7774 233.16V233.176C94.3108 233.304 94.7374 233.571 95.0574 233.976C95.3774 234.371 95.5374 234.835 95.5374 235.368V236.232C95.5374 237.064 95.2654 237.736 94.7214 238.248C94.1774 238.749 93.4521 239 92.5454 239H88.0494ZM92.2094 232.968C92.7321 232.968 93.1534 232.797 93.4734 232.456C93.7934 232.115 93.9534 231.661 93.9534 231.096V230.184C93.9534 229.715 93.7614 229.331 93.3774 229.032C93.0041 228.733 92.5081 228.584 91.8894 228.584H88.1134V232.968H92.2094ZM92.4654 238.2C93.1268 238.2 93.6548 238.024 94.0494 237.672C94.4548 237.309 94.6574 236.829 94.6574 236.232V235.368C94.6574 234.877 94.4814 234.483 94.1294 234.184C93.7881 233.875 93.3348 233.72 92.7694 233.72H88.1134V238.2H92.4654ZM51.3322 258.784C50.9589 258.784 50.6549 258.672 50.4202 258.448C50.1855 258.213 50.0682 257.909 50.0682 257.536C50.0682 257.163 50.1855 256.859 50.4202 256.624C50.6549 256.389 50.9589 256.272 51.3322 256.272C51.7055 256.272 52.0042 256.389 52.2282 256.624C52.4629 256.859 52.5802 257.163 52.5802 257.536C52.5802 257.909 52.4629 258.213 52.2282 258.448C52.0042 258.672 51.7055 258.784 51.3322 258.784ZM68.3342 262C68.0142 262 67.7849 261.808 67.6462 261.424L63.7742 250.8H64.6862L68.3182 260.912H68.3342L71.9822 250.8H72.8942L68.7662 262H68.3342ZM79.5051 258.736H74.4651L73.2331 262H72.3211L76.5931 250.8H77.0091C77.2651 250.8 77.4571 250.965 77.5851 251.296L81.6331 262H80.7211L79.5051 258.736ZM74.7371 257.984H79.2331L76.9931 251.984H76.9771L74.7371 257.984ZM83.4522 250.8H88.7322C89.5109 250.8 90.1349 251.019 90.6042 251.456C91.0735 251.883 91.3082 252.453 91.3082 253.168V254.416C91.3082 254.981 91.1269 255.483 90.7642 255.92C90.4015 256.347 89.9162 256.64 89.3082 256.8V256.816C89.6282 256.976 89.9162 257.237 90.1722 257.6C90.4282 257.963 90.6255 258.389 90.7642 258.88L91.6602 262H90.7642L89.8682 258.88C89.6975 258.315 89.4255 257.867 89.0522 257.536C88.6895 257.205 88.2735 257.04 87.8042 257.04H84.3322V262H83.4522V250.8ZM88.3322 256.256C88.9615 256.256 89.4682 256.091 89.8522 255.76C90.2362 255.419 90.4282 254.971 90.4282 254.416V253.136C90.4282 252.667 90.2735 252.293 89.9642 252.016C89.6549 251.728 89.2389 251.584 88.7162 251.584H84.3322V256.256H88.3322ZM93.8934 250.8H94.7734V262H93.8934V250.8ZM100.647 256.288L96.8226 250.8H97.8306L101.143 255.552L104.455 250.8H105.447L101.639 256.288L105.607 262H104.615L101.143 257.008L97.6706 262H96.6626L100.647 256.288ZM107.487 250.8H108.367V262H107.487V250.8ZM114.576 262.128C113.862 262.128 113.227 261.968 112.672 261.648C112.128 261.317 111.707 260.859 111.408 260.272C111.11 259.675 110.96 258.992 110.96 258.224V254.576C110.96 253.797 111.11 253.115 111.408 252.528C111.718 251.941 112.144 251.488 112.688 251.168C113.243 250.837 113.878 250.672 114.592 250.672H116.256C116.971 250.672 117.6 250.837 118.144 251.168C118.699 251.488 119.126 251.941 119.424 252.528C119.723 253.115 119.872 253.797 119.872 254.576V258.224C119.872 258.992 119.718 259.675 119.408 260.272C119.11 260.859 118.683 261.317 118.128 261.648C117.584 261.968 116.955 262.128 116.24 262.128H114.576ZM116.224 261.328C117.046 261.328 117.712 261.045 118.224 260.48C118.736 259.904 118.992 259.152 118.992 258.224V254.576C118.992 253.637 118.736 252.885 118.224 252.32C117.723 251.744 117.062 251.456 116.24 251.456H114.608C113.776 251.456 113.104 251.744 112.592 252.32C112.091 252.885 111.84 253.637 111.84 254.576V258.224C111.84 259.152 112.091 259.904 112.592 260.48C113.104 261.045 113.771 261.328 114.592 261.328H116.224Z" fill="#7F7F7F"/>
<defs>
<linearGradient id="paint0_linear_1192_36" x1="528.063" y1="239.182" x2="528.975" y2="98.0536" gradientUnits="userSpaceOnUse">
<stop offset="0.045" stop-color="#F2F2F2"/>
<stop offset="1" stop-color="#B5B5B5"/>
</linearGradient>
</defs>
</svg>
