<svg width="642" height="311" viewBox="0 0 642 311" fill="none" xmlns="http://www.w3.org/2000/svg">
<rect width="642" height="311" rx="18" fill="#F7F7F7"/>
<path d="M428.4 277.304C420.8 277.304 414 275.504 408 271.904C402.133 268.304 397.533 263.304 394.2 256.904C391 250.371 389.4 242.837 389.4 234.304V177.104C389.4 168.571 391 161.104 394.2 154.704C397.533 148.171 402.133 143.104 408 139.504C414 135.904 420.8 134.104 428.4 134.104H449.6C457.333 134.104 464.133 135.904 470 139.504C475.867 143.104 480.4 148.171 483.6 154.704C486.8 161.104 488.4 168.571 488.4 177.104V234.304C488.4 242.837 486.8 250.371 483.6 256.904C480.4 263.304 475.867 268.304 470 271.904C464.133 275.504 457.333 277.304 449.6 277.304H428.4ZM449.2 267.304C457.733 267.304 464.533 264.304 469.6 258.304C474.8 252.171 477.4 244.171 477.4 234.304V177.104C477.4 167.104 474.8 159.104 469.6 153.104C464.533 146.971 457.733 143.904 449.2 143.904H428.8C420.267 143.904 413.4 146.971 408.2 153.104C403 159.104 400.4 167.104 400.4 177.104V234.304C400.4 244.171 403 252.171 408.2 258.304C413.4 264.304 420.267 267.304 428.8 267.304H449.2ZM514.534 266.304C514.534 258.171 515.734 251.437 518.134 246.104C520.534 240.771 524.668 235.771 530.534 231.104L579.934 191.104C587.401 185.104 591.134 178.304 591.134 170.704V164.304C591.134 158.171 589.001 153.237 584.734 149.504C580.601 145.771 575.068 143.904 568.134 143.904H549.534C542.068 143.904 536.001 146.504 531.334 151.704C526.801 156.771 524.534 163.571 524.534 172.104H513.534C513.534 160.637 516.801 151.437 523.334 144.504C530.001 137.571 538.668 134.104 549.334 134.104H568.134C578.401 134.104 586.601 136.904 592.734 142.504C599.001 147.971 602.134 155.237 602.134 164.304V170.704C602.134 181.237 597.068 190.571 586.934 198.704L539.134 236.904C533.934 241.037 530.334 245.171 528.334 249.304C526.468 253.437 525.534 258.904 525.534 265.704H604.134V275.704H514.534V266.304Z" fill="url(#paint0_linear_1192_37)"/>
<path d="M51.716 82.084C49.4973 82.084 47.5213 81.5466 45.788 80.472C44.0893 79.3973 42.772 77.8893 41.836 75.948C40.9 73.972 40.432 71.7013 40.432 69.136V57.748C40.432 55.1826 40.9 52.9293 41.836 50.988C42.8067 49.0466 44.1587 47.5386 45.892 46.464C47.66 45.3893 49.6707 44.852 51.924 44.852H57.436C59.5853 44.852 61.492 45.32 63.156 46.256C64.82 47.192 66.1027 48.5093 67.004 50.208C67.9053 51.872 68.356 53.796 68.356 55.98H65.6C65.6 53.4146 64.8547 51.352 63.364 49.792C61.8733 48.1973 59.8973 47.4 57.436 47.4H51.924C49.3587 47.4 47.2787 48.3533 45.684 50.26C44.0893 52.1666 43.292 54.6626 43.292 57.748V69.136C43.292 72.256 44.0547 74.7693 45.58 76.676C47.14 78.548 49.1853 79.484 51.716 79.484H57.332C59.8627 79.484 61.8907 78.6346 63.416 76.936C64.9413 75.2026 65.704 72.9146 65.704 70.072H68.46C68.46 72.464 67.992 74.5786 67.056 76.416C66.1547 78.2186 64.8547 79.6226 63.156 80.628C61.492 81.5986 59.5507 82.084 57.332 82.084H51.716ZM82.3607 82.084C79.934 82.084 77.9927 81.46 76.5367 80.212C75.0807 78.9293 74.3527 77.2306 74.3527 75.116V73.14C74.3527 71.0253 75.098 69.344 76.5887 68.096C78.0793 66.848 80.0553 66.224 82.5167 66.224H85.8967C87.0753 66.224 88.2887 66.4146 89.5367 66.796C90.8193 67.1773 91.9113 67.6973 92.8127 68.356V63.312C92.8127 61.6826 92.31 60.348 91.3047 59.308C90.2993 58.268 88.9993 57.748 87.4047 57.748H83.3487C81.7193 57.748 80.402 58.1293 79.3967 58.892C78.3913 59.6546 77.8887 60.6773 77.8887 61.96H75.0807C75.0807 59.9493 75.8433 58.3373 77.3687 57.124C78.894 55.9106 80.8873 55.304 83.3487 55.304H87.4047C89.866 55.304 91.8247 56.032 93.2807 57.488C94.7713 58.944 95.5167 60.8853 95.5167 63.312V81.668H92.8647V77.612C91.9633 78.9986 90.854 80.0906 89.5367 80.888C88.2193 81.6853 86.8847 82.084 85.5327 82.084H82.3607ZM85.5847 79.588C87.0407 79.588 88.4273 79.068 89.7447 78.028C91.0967 76.988 92.1193 75.6186 92.8127 73.92V71.112C92.05 70.384 91.0273 69.7946 89.7447 69.344C88.4967 68.8933 87.214 68.668 85.8967 68.668H82.5167C80.8873 68.668 79.5873 69.084 78.6167 69.916C77.646 70.7133 77.1607 71.788 77.1607 73.14V75.116C77.1607 76.468 77.6287 77.56 78.5647 78.392C79.5007 79.1893 80.766 79.588 82.3607 79.588H85.5847ZM103.725 55.72H106.429V59.932C107.192 58.6146 108.284 57.5746 109.705 56.812C111.126 56.0146 112.652 55.616 114.281 55.616H116.205V58.112H114.229C111.976 58.112 110.121 58.84 108.665 60.296C107.244 61.752 106.533 63.6413 106.533 65.964V81.668H103.725V55.72ZM128.583 82.084C126.017 82.084 123.937 81.2 122.343 79.432C120.748 77.6293 119.951 75.272 119.951 72.36V65.392C119.951 62.376 120.783 59.9493 122.447 58.112C124.145 56.24 126.364 55.304 129.103 55.304H133.055C134.268 55.304 135.447 55.6333 136.591 56.292C137.769 56.916 138.705 57.7653 139.399 58.84V45.268H142.155V81.668H139.451V77.3C138.584 78.7906 137.509 79.9693 136.227 80.836C134.979 81.668 133.661 82.084 132.275 82.084H128.583ZM132.223 79.588C133.852 79.588 135.36 78.8773 136.747 77.456C138.133 76 139.017 74.2493 139.399 72.204V63.78C139.052 62.012 138.289 60.5733 137.111 59.464C135.932 58.3546 134.563 57.8 133.003 57.8H129.155C127.213 57.8 125.653 58.4933 124.475 59.88C123.331 61.2666 122.759 63.104 122.759 65.392V72.36C122.759 74.5093 123.296 76.26 124.371 77.612C125.48 78.9293 126.901 79.588 128.635 79.588H132.223ZM152.987 51.3C152.293 51.3 151.721 51.092 151.271 50.676C150.855 50.26 150.647 49.7053 150.647 49.012C150.647 48.3186 150.855 47.764 151.271 47.348C151.721 46.8973 152.293 46.672 152.987 46.672C153.68 46.672 154.235 46.8973 154.651 47.348C155.067 47.764 155.275 48.3186 155.275 49.012C155.275 49.6706 155.067 50.2253 154.651 50.676C154.235 51.092 153.68 51.3 152.987 51.3ZM151.583 55.72H154.339V81.668H151.583V55.72ZM172.015 82.084C169.242 82.084 167.006 81.2173 165.307 79.484C163.608 77.716 162.759 75.4106 162.759 72.568V64.82C162.759 61.9773 163.608 59.6893 165.307 57.956C167.04 56.188 169.311 55.304 172.119 55.304H176.227C179.035 55.304 181.288 56.188 182.987 57.956C184.72 59.6893 185.587 61.9773 185.587 64.82V72.568C185.587 75.4106 184.72 77.716 182.987 79.484C181.254 81.2173 178.966 82.084 176.123 82.084H172.015ZM176.123 79.588C178.134 79.588 179.746 78.9466 180.959 77.664C182.207 76.3813 182.831 74.6826 182.831 72.568V64.82C182.831 62.7053 182.224 61.0066 181.011 59.724C179.798 58.4413 178.203 57.8 176.227 57.8H172.119C170.143 57.8 168.548 58.4413 167.335 59.724C166.156 61.0066 165.567 62.7053 165.567 64.82V72.568C165.567 74.6826 166.156 76.3813 167.335 77.664C168.514 78.9466 170.074 79.588 172.015 79.588H176.123ZM201.019 81.668C200.395 81.668 199.875 81.512 199.459 81.2C199.077 80.8533 198.748 80.316 198.471 79.588L189.371 55.72H192.335L200.863 78.704H200.915L209.443 55.72H212.355L202.371 81.668H201.019ZM223.99 82.084C221.563 82.084 219.622 81.46 218.166 80.212C216.71 78.9293 215.982 77.2306 215.982 75.116V73.14C215.982 71.0253 216.727 69.344 218.218 68.096C219.708 66.848 221.684 66.224 224.146 66.224H227.526C228.704 66.224 229.918 66.4146 231.166 66.796C232.448 67.1773 233.54 67.6973 234.442 68.356V63.312C234.442 61.6826 233.939 60.348 232.934 59.308C231.928 58.268 230.628 57.748 229.034 57.748H224.978C223.348 57.748 222.031 58.1293 221.026 58.892C220.02 59.6546 219.518 60.6773 219.518 61.96H216.71C216.71 59.9493 217.472 58.3373 218.998 57.124C220.523 55.9106 222.516 55.304 224.978 55.304H229.034C231.495 55.304 233.454 56.032 234.91 57.488C236.4 58.944 237.146 60.8853 237.146 63.312V81.668H234.494V77.612C233.592 78.9986 232.483 80.0906 231.166 80.888C229.848 81.6853 228.514 82.084 227.162 82.084H223.99ZM227.214 79.588C228.67 79.588 230.056 79.068 231.374 78.028C232.726 76.988 233.748 75.6186 234.442 73.92V71.112C233.679 70.384 232.656 69.7946 231.374 69.344C230.126 68.8933 228.843 68.668 227.526 68.668H224.146C222.516 68.668 221.216 69.084 220.246 69.916C219.275 70.7133 218.79 71.788 218.79 73.14V75.116C218.79 76.468 219.258 77.56 220.194 78.392C221.13 79.1893 222.395 79.588 223.99 79.588H227.214ZM252.218 82.084C249.757 82.084 247.763 81.3733 246.238 79.952C244.747 78.496 244.002 76.5893 244.002 74.232H246.706C246.706 75.8266 247.209 77.1266 248.214 78.132C249.254 79.1373 250.589 79.64 252.218 79.64H256.69C258.389 79.64 259.741 79.2933 260.746 78.6C261.786 77.9066 262.306 77.0053 262.306 75.896V73.868C262.306 73.1053 262.011 72.4293 261.422 71.84C260.867 71.2506 260.139 70.8693 259.238 70.696L250.19 69.136C248.491 68.8586 247.122 68.2173 246.082 67.212C245.077 66.172 244.574 64.9586 244.574 63.572V61.804C244.574 59.8626 245.285 58.3026 246.706 57.124C248.162 55.9106 250.069 55.304 252.426 55.304H256.846C259.134 55.304 260.971 55.9626 262.358 57.28C263.779 58.5973 264.49 60.3306 264.49 62.48H261.786C261.717 61.0586 261.231 59.9146 260.33 59.048C259.463 58.1813 258.302 57.748 256.846 57.748H252.426C250.901 57.748 249.67 58.1293 248.734 58.892C247.798 59.62 247.33 60.5906 247.33 61.804V63.468C247.33 64.2653 247.642 64.976 248.266 65.6C248.89 66.1893 249.705 66.5533 250.71 66.692L259.758 68.252C261.353 68.5293 262.635 69.1706 263.606 70.176C264.577 71.1813 265.062 72.3773 265.062 73.764V75.948C265.062 77.7853 264.299 79.276 262.774 80.42C261.249 81.5293 259.221 82.084 256.69 82.084H252.218ZM279.97 82.084C277.266 82.084 275.082 81.252 273.418 79.588C271.789 77.8893 270.974 75.6706 270.974 72.932V64.924C270.974 62.0466 271.789 59.724 273.418 57.956C275.082 56.188 277.249 55.304 279.918 55.304H284.182C286.713 55.304 288.741 55.9973 290.266 57.384C291.826 58.7706 292.606 60.5906 292.606 62.844H289.902C289.902 61.3186 289.365 60.1053 288.29 59.204C287.25 58.268 285.881 57.8 284.182 57.8H279.918C278.081 57.8 276.59 58.4586 275.446 59.776C274.337 61.0586 273.782 62.7746 273.782 64.924V72.932C273.782 74.9426 274.337 76.5546 275.446 77.768C276.59 78.9813 278.098 79.588 279.97 79.588H284.234C285.967 79.588 287.371 78.9813 288.446 77.768C289.521 76.5546 290.058 74.96 290.058 72.984H292.762C292.762 75.7226 291.982 77.924 290.422 79.588C288.862 81.252 286.799 82.084 284.234 82.084H279.97ZM306.869 82.084C304.616 82.084 302.779 81.3213 301.357 79.796C299.936 78.236 299.225 76.1906 299.225 73.66V55.72H302.033V73.712C302.033 75.4453 302.467 76.8666 303.333 77.976C304.235 79.0506 305.413 79.588 306.869 79.588H310.093C311.099 79.588 312.121 79.2586 313.161 78.6C314.201 77.9413 315.12 77.0573 315.917 75.948C316.715 74.804 317.252 73.608 317.529 72.36V55.72H320.285V81.668H317.581V76.988C316.715 78.4786 315.588 79.7093 314.201 80.68C312.815 81.616 311.48 82.084 310.197 82.084H306.869ZM335.13 81.668C332.877 81.668 331.265 81.148 330.294 80.108C329.324 79.068 328.838 77.3346 328.838 74.908V45.268H331.646V74.908C331.646 76.4333 331.906 77.5253 332.426 78.184C332.981 78.8426 333.882 79.172 335.13 79.172H336.794V81.668H335.13ZM349.521 82.084C347.094 82.084 345.153 81.46 343.697 80.212C342.241 78.9293 341.513 77.2306 341.513 75.116V73.14C341.513 71.0253 342.258 69.344 343.749 68.096C345.239 66.848 347.215 66.224 349.677 66.224H353.057C354.235 66.224 355.449 66.4146 356.697 66.796C357.979 67.1773 359.071 67.6973 359.973 68.356V63.312C359.973 61.6826 359.47 60.348 358.465 59.308C357.459 58.268 356.159 57.748 354.565 57.748H350.509C348.879 57.748 347.562 58.1293 346.557 58.892C345.551 59.6546 345.049 60.6773 345.049 61.96H342.241C342.241 59.9493 343.003 58.3373 344.529 57.124C346.054 55.9106 348.047 55.304 350.509 55.304H354.565C357.026 55.304 358.985 56.032 360.441 57.488C361.931 58.944 362.677 60.8853 362.677 63.312V81.668H360.025V77.612C359.123 78.9986 358.014 80.0906 356.697 80.888C355.379 81.6853 354.045 82.084 352.693 82.084H349.521ZM352.745 79.588C354.201 79.588 355.587 79.068 356.905 78.028C358.257 76.988 359.279 75.6186 359.973 73.92V71.112C359.21 70.384 358.187 69.7946 356.905 69.344C355.657 68.8933 354.374 68.668 353.057 68.668H349.677C348.047 68.668 346.747 69.084 345.777 69.916C344.806 70.7133 344.321 71.788 344.321 73.14V75.116C344.321 76.468 344.789 77.56 345.725 78.392C346.661 79.1893 347.926 79.588 349.521 79.588H352.745ZM370.885 55.72H373.589V59.932C374.352 58.6146 375.444 57.5746 376.865 56.812C378.286 56.0146 379.812 55.616 381.441 55.616H383.365V58.112H381.389C379.136 58.112 377.281 58.84 375.825 60.296C374.404 61.752 373.693 63.6413 373.693 65.964V81.668H370.885V55.72Z" fill="#2C2C2C"/>
<path d="M52.006 123.271C51.6327 123.271 51.3287 123.159 51.094 122.935C50.8593 122.701 50.742 122.397 50.742 122.023C50.742 121.65 50.8593 121.346 51.094 121.111C51.3287 120.877 51.6327 120.759 52.006 120.759C52.3793 120.759 52.678 120.877 52.902 121.111C53.1367 121.346 53.254 121.65 53.254 122.023C53.254 122.397 53.1367 122.701 52.902 122.935C52.678 123.159 52.3793 123.271 52.006 123.271ZM66.192 126.487C65.9467 126.487 65.7493 126.413 65.6 126.263C65.4507 126.114 65.376 125.917 65.376 125.671V115.287H70.032C70.9173 115.287 71.6267 115.506 72.16 115.943C72.704 116.381 72.976 116.957 72.976 117.671V118.583C72.976 119.021 72.88 119.426 72.688 119.799C72.496 120.162 72.24 120.445 71.92 120.647V120.663C72.4533 120.791 72.88 121.058 73.2 121.463C73.52 121.858 73.68 122.322 73.68 122.855V123.719C73.68 124.551 73.408 125.223 72.864 125.735C72.32 126.237 71.5947 126.487 70.688 126.487H66.192ZM70.352 120.455C70.8747 120.455 71.296 120.285 71.616 119.943C71.936 119.602 72.096 119.149 72.096 118.583V117.671C72.096 117.202 71.904 116.818 71.52 116.519C71.1467 116.221 70.6507 116.071 70.032 116.071H66.256V120.455H70.352ZM70.608 125.687C71.2693 125.687 71.7973 125.511 72.192 125.159C72.5973 124.797 72.8 124.317 72.8 123.719V122.855C72.8 122.365 72.624 121.97 72.272 121.671C71.9307 121.362 71.4773 121.207 70.912 121.207H66.256V125.687H70.608ZM76.6764 126.487C76.4204 126.487 76.2177 126.413 76.0684 126.263C75.9297 126.114 75.8604 125.906 75.8604 125.639V115.287H83.0764V116.055H76.7404V120.375H82.5964V121.143H76.7404V125.703H83.0764V126.487H76.6764ZM85.3448 115.287H86.2088L92.6728 125.095V115.287H93.5208V126.487H92.6728L86.1928 116.711V126.487H85.3448V115.287ZM99.0186 116.055H95.4666V115.287H103.451V116.055H99.8986V126.487H99.0186V116.055ZM106.223 126.487C105.967 126.487 105.765 126.418 105.615 126.279C105.477 126.13 105.407 125.922 105.407 125.655V115.287H106.287V125.687H112.367V126.487H106.223ZM115.067 126.487C114.811 126.487 114.608 126.413 114.459 126.263C114.32 126.114 114.251 125.906 114.251 125.639V115.287H121.467V116.055H115.131V120.375H120.987V121.143H115.131V125.703H121.467V126.487H115.067ZM126.839 122.199L122.711 115.287H123.671L127.271 121.399L130.887 115.287H131.831L127.719 122.199V126.487H126.839V122.199Z" fill="#7F7F7F"/>
<defs>
<linearGradient id="paint0_linear_1192_37" x1="497.088" y1="225.712" x2="497.776" y2="98.3176" gradientUnits="userSpaceOnUse">
<stop offset="0.045" stop-color="#F2F2F2"/>
<stop offset="1" stop-color="#B5B5B5"/>
</linearGradient>
</defs>
</svg>
